<svg width="2097" height="696" viewBox="0 0 2097 696" fill="none" xmlns="http://www.w3.org/2000/svg">
<rect x="-63.0367" width="2229.52" height="696" fill="#F7EBDA"/>
<g style="mix-blend-mode:overlay">
<path fill-rule="evenodd" clip-rule="evenodd" d="M1562.24 48.5767C1561.3 59.3931 1556.21 69.453 1548.08 76.5437C1539.95 83.6341 1529.44 87.1744 1518.88 86.3856C1508.32 85.5967 1498.57 80.5434 1491.77 72.3374C1484.96 64.1311 1481.67 53.4445 1482.61 42.6281C1482.61 42.6281 1504.59 53.2491 1522.43 45.6024C1540.26 37.9557 1562.24 48.5767 1562.24 48.5767ZM1573.16 77.3016C1570.64 81.475 1567.72 85.2164 1564.52 88.3178C1562.55 89.8106 1560.89 91.2238 1559.35 92.5345C1551.26 99.4053 1546.49 103.46 1519.07 101.413C1490.47 99.276 1487.15 95.4067 1479.05 85.9856C1477.91 84.6546 1476.67 83.2128 1475.25 81.6495C1463.78 69.0201 1464.17 57.1953 1465.46 42.3604L1476.83 43.2102C1475 64.3413 1483.9 75.2232 1483.9 75.2232C1483.9 75.2232 1491.5 89.3508 1519.94 91.4753C1548.38 93.5998 1556.6 80.6537 1556.6 80.6537C1556.6 80.6537 1567.67 66.2594 1569.18 48.8573L1581.11 49.7481C1582.61 49.4357 1584.17 49.29 1585.75 49.3206C1589.71 49.3978 1593.55 50.5912 1596.7 52.7236C1599.85 54.856 1602.14 57.8138 1603.23 61.1577C1604.32 64.5017 1604.15 68.0536 1602.75 71.2862C1601.35 74.5186 1598.79 77.2596 1595.45 79.1017C1592.11 80.9437 1588.17 81.7892 1584.21 81.5122C1580.26 81.2353 1576.5 79.8505 1573.49 77.5639C1573.38 77.4776 1573.27 77.3901 1573.16 77.3016ZM1580.7 58.8094C1582.17 58.0041 1583.88 57.5903 1585.62 57.6243C1587.55 57.6617 1589.41 58.2403 1590.94 59.2743C1592.47 60.3082 1593.58 61.7423 1594.1 63.3638C1594.63 64.9851 1594.55 66.7073 1593.87 68.2747C1593.19 69.842 1591.95 71.171 1590.33 72.0641C1588.71 72.9575 1586.8 73.3673 1584.88 73.233C1582.96 73.0988 1581.14 72.4274 1579.68 71.3187C1578.75 70.6055 1577.99 69.7358 1577.46 68.7684C1578.79 65.5677 1579.89 62.2253 1580.7 58.8094ZM1466.44 104.988L1570.28 112.744C1572.24 112.89 1573.68 114.678 1573.5 116.738C1573.32 118.797 1571.59 120.348 1569.64 120.202L1465.8 112.446C1463.84 112.3 1462.4 110.512 1462.58 108.452C1462.76 106.393 1464.49 104.842 1466.44 104.988ZM1565.68 386.732C1564.56 393.181 1560.99 398.993 1555.75 402.89C1550.51 406.787 1544.03 408.45 1537.73 407.512C1531.44 406.575 1525.84 403.114 1522.18 397.892C1518.52 392.669 1517.09 386.112 1518.2 379.663C1518.2 379.663 1530.85 387.002 1541.94 383.198C1553.04 379.394 1565.68 386.732 1565.68 386.732ZM1570.76 404.447C1569.04 406.841 1567.09 408.957 1565.02 410.677C1563.76 411.487 1562.69 412.261 1561.7 412.98L1561.7 412.98C1556.5 416.747 1553.42 418.971 1537.08 416.537C1520.03 413.998 1518.23 411.53 1513.85 405.522C1513.24 404.673 1512.57 403.753 1511.79 402.753C1505.56 394.672 1506.39 387.593 1507.93 378.749L1514.71 379.759C1512.53 392.357 1517.31 399.277 1517.31 399.277C1517.31 399.277 1521.15 408.088 1538.11 410.613C1555.06 413.137 1560.65 405.731 1560.65 405.731C1560.65 405.731 1568.03 397.581 1569.83 387.205L1576.94 388.264C1577.86 388.143 1578.8 388.124 1579.74 388.211C1582.12 388.432 1584.36 389.317 1586.15 390.735C1587.93 392.153 1589.15 394.028 1589.63 396.082C1590.12 398.137 1589.83 400.26 1588.83 402.138C1587.82 404.016 1586.14 405.548 1584.04 406.507C1581.95 407.465 1579.54 407.799 1577.18 407.459C1574.82 407.119 1572.64 406.123 1570.95 404.619C1570.89 404.562 1570.82 404.505 1570.76 404.447ZM1576.24 393.683C1577.16 393.264 1578.2 393.091 1579.25 393.188C1580.4 393.295 1581.49 393.724 1582.35 394.412C1583.22 395.099 1583.81 396.009 1584.04 397.005C1584.28 398.001 1584.14 399.031 1583.65 399.941C1583.16 400.852 1582.35 401.594 1581.33 402.059C1580.32 402.524 1579.15 402.686 1578 402.521C1576.86 402.356 1575.8 401.873 1574.98 401.144C1574.46 400.675 1574.05 400.12 1573.78 399.516C1574.74 397.654 1575.57 395.697 1576.24 393.683ZM1505.32 416.369L1567.23 425.587C1568.39 425.76 1569.17 426.896 1568.95 428.124C1568.74 429.352 1567.62 430.207 1566.46 430.033L1504.55 420.816C1503.38 420.642 1502.61 419.506 1502.82 418.278C1503.04 417.05 1504.15 416.196 1505.32 416.369ZM940.239 150.096C941.718 155.219 941.151 160.626 938.661 165.128C936.17 169.63 931.961 172.857 926.959 174.1C921.958 175.344 916.573 174.501 911.989 171.757C907.406 169.013 904 164.594 902.52 159.471C902.52 159.471 914.517 161.018 921.379 154.783C928.241 148.549 940.239 150.096 940.239 150.096ZM950.342 161.662C949.923 163.966 949.238 166.134 948.312 168.049C947.672 169.035 947.156 169.938 946.677 170.777C944.169 175.17 942.688 177.763 929.704 180.991C916.156 184.358 913.941 183.082 908.547 179.976C907.785 179.537 906.96 179.061 906.03 178.557C898.519 174.486 896.605 168.983 894.575 161.957L899.963 160.617C902.855 170.626 908.876 174.283 908.876 174.283C908.876 174.283 914.873 179.632 928.344 176.284C941.815 172.936 943.309 165.725 943.309 165.725C943.309 165.725 945.864 157.413 943.483 149.17L949.131 147.766C949.77 147.393 950.462 147.089 951.192 146.864C953.031 146.296 955.011 146.261 956.839 146.764C958.667 147.266 960.244 148.28 961.337 149.654C962.429 151.028 962.98 152.689 962.905 154.391C962.831 156.092 962.136 157.744 960.925 159.1C959.713 160.456 958.048 161.445 956.178 161.919C954.308 162.393 952.332 162.327 950.543 161.732C950.476 161.709 950.409 161.686 950.342 161.662ZM950.548 151.999C951.081 151.406 951.795 150.955 952.604 150.705C953.496 150.43 954.456 150.413 955.342 150.657C956.228 150.901 956.993 151.392 957.523 152.058C958.053 152.724 958.32 153.53 958.284 154.355C958.248 155.18 957.911 155.981 957.323 156.638C956.736 157.296 955.929 157.775 955.022 158.005C954.115 158.235 953.157 158.203 952.29 157.915C951.732 157.729 951.231 157.443 950.815 157.078C950.862 155.402 950.776 153.696 950.548 151.999ZM906.102 190.643L955.286 178.418C956.212 178.188 957.191 178.793 957.473 179.768C957.755 180.743 957.232 181.721 956.306 181.951L907.123 194.175C906.197 194.405 905.218 193.801 904.936 192.826C904.654 191.85 905.176 190.873 906.102 190.643ZM301.725 259.17C304.418 268.494 303.385 278.334 298.853 286.527C294.321 294.72 286.66 300.594 277.557 302.856C268.454 305.118 258.654 303.584 250.313 298.591C241.972 293.598 235.772 285.555 233.079 276.231C233.079 276.231 254.914 279.047 267.402 267.7C279.89 256.354 301.725 259.17 301.725 259.17ZM320.112 280.219C319.349 284.412 318.103 288.357 316.418 291.842C315.253 293.637 314.314 295.281 313.443 296.807L313.443 296.807C308.878 304.803 306.183 309.522 282.552 315.396C257.896 321.524 253.864 319.202 244.048 313.549C242.662 312.75 241.159 311.885 239.467 310.968C225.797 303.558 222.314 293.543 218.62 280.755L228.426 278.318C233.688 296.533 244.647 303.188 244.647 303.188C244.647 303.188 255.561 312.923 280.077 306.83C304.594 300.736 307.314 287.613 307.314 287.613C307.314 287.613 311.962 272.485 307.629 257.484L317.908 254.93C319.072 254.25 320.331 253.696 321.659 253.287C325.006 252.254 328.61 252.19 331.936 253.105C335.262 254.019 338.133 255.864 340.122 258.365C342.111 260.865 343.112 263.888 342.977 266.986C342.842 270.083 341.577 273.088 339.372 275.556C337.166 278.025 334.137 279.824 330.733 280.687C327.33 281.55 323.733 281.43 320.479 280.346C320.356 280.305 320.234 280.263 320.112 280.219ZM320.488 262.634C321.457 261.553 322.756 260.733 324.229 260.278C325.852 259.778 327.6 259.747 329.213 260.19C330.825 260.634 332.217 261.528 333.182 262.741C334.146 263.953 334.631 265.419 334.566 266.921C334.5 268.422 333.887 269.88 332.818 271.076C331.748 272.273 330.28 273.145 328.629 273.564C326.979 273.982 325.235 273.924 323.657 273.399C322.642 273.061 321.73 272.541 320.974 271.877C321.059 268.826 320.902 265.722 320.488 262.634ZM239.599 332.962L329.11 310.715C330.795 310.296 332.577 311.395 333.09 313.171C333.603 314.946 332.652 316.725 330.967 317.144L241.456 339.39C239.771 339.809 237.989 338.71 237.476 336.934C236.964 335.159 237.914 333.38 239.599 332.962ZM105.013 595.268C103.818 604.857 98.9534 613.654 91.4886 619.725C84.0239 625.795 74.5707 628.642 65.209 627.638C55.8473 626.634 47.3436 621.862 41.5688 614.372C35.7941 606.882 33.2212 597.287 34.4162 587.698C34.4162 587.698 53.6012 597.77 69.7148 591.483C85.8284 585.196 105.013 595.268 105.013 595.268ZM113.759 621.117C111.385 624.755 108.662 627.997 105.712 630.663C103.917 631.934 102.391 633.142 100.976 634.263C93.5585 640.14 89.1808 643.608 64.8777 641.002C39.5207 638.283 36.6934 634.748 29.8092 626.141L29.8092 626.141C28.8366 624.925 27.7831 623.608 26.5737 622.177C16.8032 610.621 17.538 600.12 19.177 586.969L29.2623 588.05C26.9277 606.783 34.4765 616.712 34.4765 616.712C34.4765 616.712 40.7623 629.489 65.9756 632.193C91.1889 634.896 98.9247 623.622 98.9247 623.622C98.9247 623.622 109.249 611.143 111.172 595.716L121.743 596.849C123.095 596.615 124.485 596.53 125.883 596.602C129.405 596.784 132.781 597.955 135.511 599.941C138.241 601.927 140.178 604.622 141.035 607.626C141.892 610.63 141.624 613.783 140.269 616.617C138.915 619.45 136.547 621.814 133.517 623.356C130.486 624.898 126.956 625.536 123.449 625.177C119.942 624.817 116.645 623.479 114.049 621.36C113.951 621.28 113.854 621.199 113.759 621.117ZM121.085 604.893C122.415 604.219 123.948 603.901 125.499 603.981C127.207 604.069 128.844 604.637 130.167 605.6C131.491 606.563 132.43 607.87 132.846 609.326C133.261 610.783 133.131 612.311 132.474 613.685C131.817 615.059 130.669 616.205 129.2 616.953C127.731 617.7 126.019 618.01 124.319 617.836C122.618 617.661 121.02 617.012 119.761 615.985C118.951 615.324 118.309 614.529 117.87 613.654C119.16 610.847 120.245 607.907 121.085 604.893ZM17.9701 642.673L110.025 652.543C111.759 652.729 112.979 654.36 112.752 656.186C112.524 658.011 110.935 659.341 109.201 659.155L17.1461 649.284C15.4129 649.099 14.1923 647.468 14.4199 645.642C14.6474 643.816 16.2369 642.487 17.9701 642.673ZM-14.3791 70.2274C-15.5741 79.8163 -20.4391 88.6136 -27.9038 94.6843C-35.3686 100.755 -44.8217 103.601 -54.1834 102.598C-63.5451 101.594 -72.0489 96.8218 -77.8236 89.3318C-83.5984 81.8415 -86.1713 72.2467 -84.9763 62.6578C-84.9763 62.6578 -65.7913 72.7295 -49.6777 66.4426C-33.564 60.1556 -14.3791 70.2274 -14.3791 70.2274ZM-5.63395 96.0765C-8.00714 99.7147 -10.7306 102.957 -13.6801 105.623C-15.4758 106.893 -17.0014 108.102 -18.4165 109.223C-25.8339 115.1 -30.2117 118.568 -54.5147 115.962C-79.8717 113.243 -82.6991 109.708 -89.5832 101.101L-89.5833 101.101C-90.5558 99.8847 -91.6093 98.5675 -92.8188 97.1371C-102.589 85.5811 -101.854 75.0798 -100.215 61.9284L-90.1302 63.0098C-92.4648 81.7428 -84.916 91.6719 -84.916 91.6719C-84.916 91.6719 -78.6301 104.449 -53.4168 107.152C-28.2036 109.856 -20.4678 98.5822 -20.4678 98.5822C-20.4678 98.5822 -10.1435 86.1029 -8.22086 70.6756L2.35048 71.8091C3.70229 71.5746 5.093 71.4897 6.49035 71.562C10.0125 71.7442 13.3889 72.9152 16.1185 74.9012C18.8484 76.8872 20.7854 79.5822 21.6426 82.5862C22.4997 85.5902 22.2313 88.7431 20.8768 91.5766C19.5224 94.4101 17.1542 96.7735 14.1242 98.3154C11.0939 99.8574 7.56322 100.496 4.05629 100.137C0.549355 99.7771 -2.74712 98.4383 -5.3434 96.3194C-5.44145 96.2394 -5.5383 96.1584 -5.63395 96.0765ZM1.69294 79.8532C3.02226 79.1792 4.55589 78.8604 6.10634 78.9405C7.81409 79.0289 9.45111 79.5967 10.7747 80.5596C12.0983 81.5225 13.0377 82.8293 13.4532 84.2859C13.8688 85.7424 13.7386 87.2711 13.0819 88.645C12.425 90.0189 11.2768 91.1648 9.80776 91.9124C8.33843 92.6602 6.62656 92.9698 4.9262 92.7955C3.22559 92.6212 1.62732 91.9721 0.368496 90.9447C-0.44141 90.2838 -1.08303 89.489 -1.52269 88.6138C-0.23277 85.8065 0.852676 82.8665 1.69294 79.8532ZM-101.422 117.633L-9.36703 127.503C-7.63382 127.689 -6.41323 129.32 -6.64076 131.145C-6.8683 132.971 -8.45779 134.3 -10.191 134.115L-102.246 124.244C-103.98 124.058 -105.2 122.428 -104.973 120.602C-104.745 118.776 -103.156 117.447 -101.422 117.633ZM1446.59 614.413C1445.39 621.333 1441.56 627.571 1435.93 631.753C1430.31 635.935 1423.35 637.719 1416.59 636.713C1409.84 635.707 1403.83 631.993 1399.9 626.389C1395.97 620.784 1394.44 613.747 1395.63 606.826C1395.63 606.826 1409.2 614.702 1421.11 610.619C1433.02 606.537 1446.59 614.413 1446.59 614.413ZM1452.04 633.424C1450.19 635.992 1448.1 638.264 1445.87 640.11C1444.53 640.978 1443.38 641.81 1442.31 642.581L1442.31 642.581L1442.31 642.581C1436.73 646.624 1433.43 649.01 1415.89 646.398C1397.59 643.674 1395.66 641.025 1390.97 634.577L1390.97 634.577C1390.3 633.666 1389.58 632.679 1388.76 631.606C1382.07 622.933 1382.96 615.337 1384.6 605.845L1391.88 606.929C1389.54 620.449 1394.68 627.876 1394.68 627.876C1394.68 627.876 1398.8 637.331 1416.99 640.04C1435.19 642.75 1441.19 634.801 1441.19 634.801C1441.19 634.801 1449.11 626.055 1451.04 614.92L1458.67 616.056C1459.66 615.926 1460.67 615.906 1461.68 616C1464.23 616.237 1466.64 617.186 1468.55 618.708C1470.46 620.23 1471.77 622.242 1472.29 624.447C1472.81 626.651 1472.51 628.931 1471.43 630.946C1470.34 632.961 1468.55 634.605 1466.29 635.634C1464.04 636.663 1461.46 637.021 1458.93 636.656C1456.4 636.292 1454.05 635.223 1452.24 633.608C1452.17 633.547 1452.11 633.486 1452.04 633.424ZM1457.91 621.872C1458.9 621.423 1460.02 621.237 1461.15 621.341C1462.38 621.456 1463.55 621.916 1464.48 622.654C1465.4 623.392 1466.04 624.368 1466.29 625.437C1466.54 626.506 1466.4 627.611 1465.87 628.588C1465.35 629.565 1464.48 630.362 1463.38 630.861C1462.29 631.36 1461.04 631.534 1459.81 631.357C1458.58 631.18 1457.45 630.662 1456.57 629.879C1456.01 629.376 1455.57 628.78 1455.28 628.132C1456.31 626.134 1457.2 624.033 1457.91 621.872ZM1381.81 646.218L1448.25 656.11C1449.5 656.296 1450.33 657.516 1450.1 658.833C1449.87 660.151 1448.67 661.068 1447.42 660.882L1380.98 650.99C1379.73 650.804 1378.9 649.585 1379.13 648.267C1379.36 646.949 1380.56 646.032 1381.81 646.218ZM2176.11 346.619C2172.5 353.365 2166.42 358.629 2159.21 361.253C2151.99 363.878 2144.24 363.648 2137.66 360.614C2131.07 357.58 2126.19 351.99 2124.09 345.075C2121.98 338.16 2122.83 330.485 2126.44 323.739C2126.44 323.739 2137.65 335.84 2151.28 335.179C2164.9 334.518 2176.11 346.619 2176.11 346.619ZM2175.16 367.74C2172.38 369.828 2169.45 371.54 2166.53 372.773C2164.85 373.265 2163.38 373.778 2162.02 374.254C2154.9 376.748 2150.7 378.22 2133.6 370.343C2115.76 362.125 2114.7 358.837 2112.1 350.829C2111.73 349.698 2111.33 348.472 2110.85 347.125C2106.98 336.245 2110.51 328.716 2115.46 319.464L2122.56 322.733C2115.5 335.912 2118.21 345.053 2118.21 345.053C2118.21 345.053 2119.18 355.974 2136.92 364.146C2154.66 372.317 2163.55 365.939 2163.55 365.939C2163.55 365.939 2174.69 359.312 2180.5 348.459L2187.94 351.885C2189 352.045 2190.04 352.323 2191.05 352.719C2193.58 353.717 2195.73 355.405 2197.16 357.533C2198.6 359.661 2199.25 362.114 2199.03 364.53C2198.8 366.945 2197.7 369.194 2195.9 370.942C2194.1 372.689 2191.69 373.843 2189.02 374.232C2186.36 374.62 2183.58 374.222 2181.11 373.098C2178.64 371.974 2176.6 370.182 2175.3 367.99C2175.25 367.907 2175.2 367.824 2175.16 367.74ZM2185.16 357.629C2186.33 357.46 2187.55 357.602 2188.66 358.042C2189.89 358.525 2190.93 359.344 2191.63 360.376C2192.32 361.407 2192.64 362.597 2192.53 363.768C2192.42 364.939 2191.89 366.03 2191.01 366.877C2190.14 367.724 2188.97 368.284 2187.68 368.472C2186.39 368.661 2185.04 368.468 2183.84 367.923C2182.64 367.377 2181.66 366.509 2181.03 365.446C2180.62 364.762 2180.38 364.021 2180.3 363.27C2182.05 361.526 2183.69 359.634 2185.16 357.629ZM2098.69 360.06L2163.45 389.893C2164.67 390.455 2165.1 391.952 2164.42 393.236C2163.73 394.52 2162.18 395.106 2160.96 394.545L2096.2 364.711C2094.98 364.149 2094.55 362.653 2095.24 361.368C2095.93 360.084 2097.47 359.498 2098.69 360.06ZM1934.67 149.996C1936.11 157.409 1934.62 164.998 1930.52 171.095C1926.42 177.191 1920.05 181.294 1912.81 182.503C1905.57 183.711 1898.06 181.926 1891.93 177.539C1885.79 173.152 1881.54 166.522 1880.1 159.11C1880.1 159.11 1896.88 162.62 1907.39 154.553C1917.89 146.486 1934.67 149.996 1934.67 149.996ZM1947.49 167.476C1946.6 170.69 1945.36 173.682 1943.8 176.29C1942.77 177.615 1941.92 178.837 1941.14 179.97C1937.03 185.912 1934.6 189.418 1915.81 192.555C1896.21 195.829 1893.24 193.779 1886 188.79C1884.98 188.085 1883.87 187.321 1882.62 186.506C1872.51 179.918 1870.51 171.919 1868.54 161.753L1876.33 160.451C1879.14 174.933 1887.2 180.77 1887.2 180.77C1887.2 180.77 1895 189 1914.49 185.745C1933.98 182.49 1937.02 172.451 1937.02 172.451C1937.02 172.451 1941.7 160.969 1939.38 149.043L1947.55 147.678C1948.51 147.22 1949.53 146.866 1950.59 146.628C1953.26 146.027 1956.07 146.196 1958.59 147.108C1961.11 148.021 1963.22 149.629 1964.59 151.693C1965.96 153.758 1966.52 156.169 1966.2 158.569C1965.88 160.969 1964.68 163.23 1962.79 165.015C1960.91 166.801 1958.42 168.017 1955.72 168.482C1953.01 168.947 1950.22 168.636 1947.77 167.597C1947.67 167.557 1947.58 167.517 1947.49 167.476ZM1949.02 153.825C1949.85 153.043 1950.92 152.484 1952.09 152.22C1953.39 151.929 1954.75 152.01 1955.97 152.453C1957.2 152.895 1958.22 153.675 1958.88 154.676C1959.55 155.677 1959.82 156.846 1959.66 158.01C1959.51 159.173 1958.93 160.27 1958.01 161.135C1957.1 162.001 1955.89 162.591 1954.58 162.816C1953.27 163.042 1951.92 162.891 1950.73 162.387C1949.96 162.063 1949.29 161.603 1948.75 161.042C1949.03 158.675 1949.12 156.251 1949.02 153.825ZM1881.18 203.615L1952.34 191.732C1953.68 191.508 1954.99 192.471 1955.26 193.883C1955.54 195.294 1954.67 196.62 1953.33 196.843L1882.17 208.727C1880.83 208.95 1879.52 207.988 1879.25 206.576C1878.97 205.165 1879.84 203.839 1881.18 203.615ZM2023.77 596.473C2023.44 603.999 2020.2 611.106 2014.77 616.232C2009.34 621.357 2002.17 624.081 1994.82 623.804C1987.47 623.527 1980.56 620.271 1975.59 614.754C1970.63 609.236 1968.03 601.909 1968.36 594.383C1968.36 594.383 1983.92 601.188 1996.06 595.428C2008.21 589.669 2023.77 596.473 2023.77 596.473ZM2032.19 616.116C2030.57 619.075 2028.65 621.745 2026.52 623.977C2025.21 625.063 2024.1 626.086 2023.06 627.034C2017.66 632.006 2014.47 634.94 1995.4 634.221C1975.5 633.47 1973.07 630.872 1967.18 624.545C1966.35 623.651 1965.44 622.683 1964.41 621.635C1956.09 613.169 1956 604.958 1956.46 594.636L1964.37 594.935C1963.73 609.637 1970.22 616.957 1970.22 616.957C1970.22 616.957 1975.91 626.561 1995.7 627.307C2015.49 628.053 2020.8 618.864 2020.8 618.864C2020.8 618.864 2028.06 608.598 2028.59 596.49L2036.88 596.803C2037.92 596.548 2039 596.407 2040.09 596.388C2042.84 596.34 2045.54 597.07 2047.79 598.468C2050.04 599.867 2051.71 601.859 2052.57 604.151C2053.42 606.442 2053.41 608.91 2052.54 611.188C2051.66 613.465 2049.96 615.432 2047.7 616.795C2045.44 618.158 2042.73 618.845 2039.98 618.754C2037.23 618.663 2034.58 617.799 2032.43 616.29C2032.35 616.233 2032.27 616.175 2032.19 616.116ZM2036.87 603.098C2037.87 602.502 2039.04 602.171 2040.25 602.15C2041.59 602.127 2042.9 602.481 2043.99 603.159C2045.08 603.837 2045.89 604.803 2046.3 605.914C2046.72 607.025 2046.71 608.222 2046.29 609.326C2045.86 610.431 2045.04 611.384 2043.94 612.045C2042.85 612.706 2041.53 613.039 2040.2 612.995C2038.87 612.951 2037.58 612.532 2036.54 611.8C2035.87 611.329 2035.32 610.745 2034.92 610.088C2035.75 607.834 2036.41 605.488 2036.87 603.098ZM1959 638.046L2031.25 640.771C2032.61 640.822 2033.66 642.026 2033.6 643.458C2033.54 644.891 2032.38 646.011 2031.02 645.96L1958.77 643.235C1957.41 643.184 1956.36 641.98 1956.42 640.548C1956.49 639.115 1957.64 637.995 1959 638.046ZM927.677 582.905C925.537 593.779 919.267 603.494 910.247 609.912C901.227 616.33 890.195 618.925 879.578 617.128C868.962 615.33 859.63 609.286 853.636 600.326C847.643 591.366 845.478 580.223 847.618 569.349C847.618 569.349 868.727 582.191 887.648 576.127C906.568 570.063 927.677 582.905 927.677 582.905ZM935.582 613.05C932.577 617.043 929.203 620.559 925.617 623.399C923.462 624.727 921.621 626.002 919.914 627.185C910.963 633.384 905.681 637.043 878.12 632.376C849.365 627.507 846.419 623.271 839.248 612.957C838.235 611.5 837.138 609.922 835.871 608.203C825.64 594.319 827.328 582.37 830.263 567.456L841.7 569.393C837.519 590.637 845.343 602.507 845.343 602.507C845.343 602.507 851.494 617.544 880.086 622.386C908.679 627.227 918.429 614.883 918.429 614.883C918.429 614.883 931.235 601.34 934.678 583.845L946.666 585.875C948.23 585.701 949.826 585.701 951.417 585.88C955.427 586.333 959.19 587.906 962.149 590.365C965.108 592.824 967.104 596.039 967.841 599.531C968.578 603.023 968.016 606.607 966.239 609.751C964.463 612.895 961.566 615.431 957.979 616.982C954.392 618.533 950.306 619.018 946.327 618.363C942.349 617.709 938.69 615.95 935.895 613.348C935.789 613.25 935.685 613.151 935.582 613.05ZM945.265 595.021C946.839 594.344 948.617 594.086 950.382 594.285C952.326 594.505 954.151 595.267 955.586 596.46C957.02 597.652 957.988 599.21 958.346 600.904C958.703 602.597 958.43 604.335 957.569 605.859C956.707 607.383 955.303 608.613 953.564 609.365C951.824 610.118 949.843 610.352 947.914 610.035C945.985 609.718 944.211 608.865 942.856 607.603C941.984 606.792 941.315 605.839 940.883 604.808C942.584 601.69 944.062 598.406 945.265 595.021ZM824.384 631.025L928.778 648.702C930.744 649.035 932.007 650.983 931.599 653.053C931.192 655.124 929.268 656.532 927.302 656.2L822.909 638.523C820.943 638.19 819.68 636.242 820.088 634.172C820.495 632.101 822.419 630.692 824.384 631.025Z" fill="#2F2105"/>
</g>
</svg>
