<svg width="1871" height="1771" viewBox="0 0 1871 1771" fill="none" xmlns="http://www.w3.org/2000/svg">
<rect x="0.204895" width="1870.46" height="1771" fill="#2F2105"/>
<g style="mix-blend-mode:overlay">
<path fill-rule="evenodd" clip-rule="evenodd" d="M837.285 23.0047C836.841 38.6729 834.435 53.2453 830.596 63.5166C826.756 73.7875 821.797 78.9158 816.811 77.7732C811.824 76.6305 807.218 69.3104 804.006 57.4235C800.793 45.5363 799.237 30.056 799.681 14.3878C799.681 14.3878 810.059 29.773 818.483 18.6963C826.907 7.61956 837.285 23.0047 837.285 23.0047ZM842.438 64.6145C841.251 70.6599 839.871 76.0796 838.359 80.5721C837.432 82.7343 836.646 84.7812 835.918 86.6797L835.918 86.6801L835.918 86.6803C832.099 96.633 829.846 102.507 816.901 99.5407C803.394 96.4457 801.824 90.8408 798.001 77.1938C797.461 75.2658 796.875 73.1773 796.205 70.9127C790.792 52.6183 790.973 35.4893 791.582 14L796.954 15.231C796.087 45.8407 800.289 61.6039 800.289 61.6039C800.289 61.6039 803.878 82.0684 817.308 85.1459C830.738 88.2234 834.618 69.4702 834.618 69.4702C834.618 69.4702 839.847 48.6193 840.561 23.4113L846.192 24.7016C846.904 24.2491 847.64 24.038 848.383 24.0824C850.255 24.1942 852.07 25.9229 853.557 29.0118C855.045 32.1007 856.126 36.3852 856.641 41.2291C857.155 46.0731 857.075 51.2182 856.413 55.9008C855.751 60.5832 854.542 64.5536 852.965 67.222C851.388 69.8904 849.527 71.115 847.66 70.7139C845.792 70.3127 844.016 68.3067 842.597 64.9945C842.543 64.8694 842.49 64.7427 842.438 64.6145ZM846.003 37.8274C846.695 36.6609 847.502 36.0615 848.326 36.1107C849.234 36.1649 850.114 37.0031 850.835 38.5008C851.556 39.9986 852.081 42.076 852.33 44.4247C852.579 46.7734 852.541 49.2681 852.22 51.5385C851.898 53.8089 851.312 55.734 850.547 57.0277C849.783 58.3218 848.881 58.9154 847.975 58.721C847.07 58.5265 846.209 57.5539 845.521 55.9479C845.078 54.9148 844.722 53.655 844.471 52.2536C845.099 47.6172 845.617 42.7755 846.003 37.8274ZM792.048 104.719L841.082 115.955C842.005 116.167 842.685 118.757 842.601 121.74C842.516 124.723 841.699 126.97 840.776 126.759L791.742 115.523C790.819 115.311 790.139 112.721 790.224 109.738C790.308 106.755 791.125 104.508 792.048 104.719ZM838.908 512.843C838.381 522.185 836.695 530.604 834.22 536.249C831.745 541.894 828.685 544.303 825.712 542.945C822.739 541.587 820.097 536.574 818.367 529.008C816.638 521.443 815.962 511.945 816.489 502.604C816.489 502.604 822.46 513.234 827.699 507.723C832.937 502.213 838.908 512.843 838.908 512.843ZM841.307 538.504C840.495 541.971 839.576 545.037 838.594 547.529C838.002 548.701 837.496 549.824 837.028 550.865C834.571 556.322 833.121 559.542 825.403 556.017C817.351 552.34 816.502 548.765 814.435 540.061C814.143 538.832 813.827 537.5 813.462 536.05C810.519 524.344 810.913 514.091 811.636 501.279L814.839 502.742C813.809 520.991 816.068 531.016 816.068 531.016C816.068 531.016 817.88 543.778 825.887 547.435C833.894 551.092 836.534 540.363 836.534 540.363C836.534 540.363 840.019 528.558 840.867 513.529L844.224 515.062C844.659 514.887 845.104 514.859 845.549 514.986C846.671 515.306 847.731 516.587 848.572 518.641C849.413 520.695 849.991 523.412 850.219 526.387C850.447 529.363 850.313 532.44 849.838 535.16C849.362 537.88 848.571 540.099 847.58 541.488C846.589 542.876 845.453 543.36 844.339 542.868C843.225 542.375 842.193 540.932 841.396 538.754C841.366 538.671 841.337 538.588 841.307 538.504ZM843.892 522.912C844.327 522.306 844.821 522.055 845.315 522.195C845.859 522.35 846.372 522.972 846.78 523.968C847.188 524.964 847.468 526.281 847.579 527.724C847.689 529.167 847.625 530.658 847.394 531.977C847.164 533.296 846.78 534.372 846.299 535.045C845.819 535.719 845.268 535.953 844.728 535.714C844.188 535.476 843.687 534.776 843.301 533.72C843.053 533.04 842.86 532.236 842.733 531.362C843.187 528.664 843.578 525.829 843.892 522.912ZM810.405 555.774L839.639 569.126C840.189 569.378 840.554 571.023 840.454 572.802C840.353 574.581 839.826 575.819 839.275 575.567L810.042 562.215C809.491 561.964 809.127 560.318 809.227 558.54C809.327 556.761 809.855 555.523 810.405 555.774ZM543.57 170.062C544.269 177.483 544 185.315 542.825 191.836C541.649 198.357 539.661 203.032 537.299 204.833C534.937 206.634 532.394 205.413 530.23 201.439C528.066 197.464 526.457 191.063 525.759 183.641C525.759 183.641 531.424 185.882 534.664 176.851C537.904 167.82 543.57 170.062 543.57 170.062ZM548.341 186.816C548.143 190.153 547.819 193.293 547.382 196.067C547.08 197.495 546.836 198.804 546.61 200.019C545.426 206.383 544.726 210.139 538.595 214.814C532.198 219.692 531.152 217.844 528.605 213.344C528.245 212.708 527.855 212.02 527.416 211.29C523.869 205.392 522.965 197.421 522.007 187.242L524.551 185.302C525.917 199.8 528.76 205.098 528.76 205.098C528.76 205.098 531.592 212.846 537.953 207.996C544.314 203.146 545.02 192.701 545.02 192.701C545.02 192.701 546.226 180.66 545.102 168.72L547.769 166.687C548.071 166.146 548.397 165.705 548.742 165.379C549.61 164.557 550.546 164.506 551.408 165.234C552.272 165.962 553.016 167.43 553.532 169.421C554.048 171.411 554.308 173.817 554.273 176.282C554.238 178.747 553.91 181.14 553.338 183.104C552.765 185.069 551.979 186.501 551.096 187.188C550.213 187.875 549.28 187.779 548.436 186.917C548.404 186.884 548.372 186.851 548.341 186.816ZM548.438 172.819C548.689 171.959 549.027 171.306 549.409 170.944C549.83 170.545 550.283 170.521 550.702 170.874C551.12 171.227 551.481 171.939 551.732 172.904C551.982 173.869 552.108 175.036 552.091 176.231C552.074 177.426 551.915 178.586 551.637 179.538C551.36 180.491 550.979 181.185 550.55 181.518C550.122 181.852 549.67 181.805 549.26 181.387C548.997 181.118 548.76 180.704 548.564 180.176C548.586 177.748 548.546 175.277 548.438 172.819ZM527.45 228.796L550.675 211.088C551.112 210.755 551.575 211.63 551.708 213.043C551.841 214.456 551.594 215.872 551.157 216.205L527.932 233.913C527.495 234.246 527.033 233.371 526.9 231.958C526.766 230.545 527.013 229.129 527.45 228.796ZM242.058 328.061C243.33 341.567 242.842 355.822 240.702 367.69C238.562 379.558 234.945 388.066 230.646 391.343C226.348 394.621 221.72 392.398 217.781 385.166C213.843 377.933 210.915 366.282 209.643 352.775C209.643 352.775 219.954 356.854 225.851 340.418C231.748 323.983 242.058 328.061 242.058 328.061ZM250.741 358.553C250.381 364.627 249.792 370.341 248.997 375.389C248.447 377.989 248.003 380.371 247.592 382.58L247.592 382.581L247.592 382.581C245.436 394.164 244.164 401 233.005 409.508C221.362 418.385 219.458 415.021 214.823 406.832L214.823 406.832C214.168 405.675 213.459 404.422 212.66 403.093C206.205 392.36 204.56 377.853 202.816 359.329L207.446 355.798C209.931 382.184 215.106 391.825 215.106 391.825C215.106 391.825 220.26 405.926 231.836 397.099C243.413 388.273 244.698 369.263 244.698 369.263C244.698 369.263 246.893 347.349 244.846 325.62L249.7 321.919C250.25 320.935 250.844 320.133 251.472 319.539C253.052 318.043 254.754 317.951 256.325 319.276C257.895 320.601 259.251 323.273 260.19 326.895C261.129 330.517 261.602 334.897 261.538 339.383C261.474 343.869 260.877 348.223 259.836 351.798C258.794 355.374 257.364 357.98 255.756 359.23C254.149 360.48 252.451 360.307 250.914 358.737C250.856 358.677 250.798 358.616 250.741 358.553ZM250.919 333.079C251.376 331.514 251.99 330.326 252.685 329.667C253.452 328.942 254.277 328.897 255.038 329.539C255.8 330.182 256.457 331.477 256.913 333.234C257.368 334.99 257.597 337.114 257.566 339.289C257.535 341.464 257.246 343.575 256.741 345.309C256.236 347.042 255.542 348.306 254.763 348.912C253.984 349.518 253.16 349.434 252.415 348.673C251.936 348.183 251.505 347.43 251.148 346.469C251.188 342.05 251.114 337.553 250.919 333.079ZM212.722 434.953L254.99 402.727C255.786 402.12 256.627 403.713 256.869 406.285C257.112 408.856 256.663 411.433 255.867 412.04L213.599 444.266C212.804 444.873 211.962 443.28 211.72 440.708C211.478 438.136 211.927 435.56 212.722 434.953ZM149.17 814.919C148.606 828.809 146.308 841.552 142.783 850.346C139.258 859.139 134.795 863.263 130.374 861.809C125.953 860.355 121.938 853.442 119.211 842.593C116.484 831.742 115.269 817.844 115.833 803.954C115.833 803.954 124.893 818.543 132.502 809.436C140.111 800.329 149.17 814.919 149.17 814.919ZM153.299 852.363C152.179 857.633 150.893 862.33 149.5 866.191C148.652 868.032 147.932 869.782 147.263 871.406L147.263 871.406C143.761 879.919 141.694 884.943 130.218 881.168C118.244 877.23 116.909 872.109 113.658 859.641C113.199 857.879 112.701 855.971 112.13 853.899C107.516 837.159 107.863 821.948 108.637 802.897L113.4 804.464C112.297 831.6 115.862 845.982 115.862 845.982C115.862 845.982 118.83 864.491 130.736 868.407C142.642 872.323 146.295 855.992 146.295 855.992C146.295 855.992 151.17 837.915 152.078 815.568L157.07 817.21C157.708 816.87 158.365 816.747 159.025 816.852C160.688 817.116 162.282 818.812 163.571 821.689C164.86 824.566 165.775 828.47 166.18 832.821C166.584 837.173 166.458 841.74 165.818 845.844C165.178 849.949 164.06 853.372 162.629 855.606C161.198 857.839 159.531 858.765 157.875 858.244C156.219 857.723 154.663 855.784 153.437 852.715C153.39 852.599 153.345 852.481 153.299 852.363ZM156.759 828.862C157.387 827.886 158.111 827.424 158.843 827.54C159.65 827.668 160.423 828.491 161.048 829.886C161.673 831.28 162.116 833.173 162.313 835.283C162.509 837.393 162.447 839.608 162.137 841.598C161.827 843.588 161.285 845.248 160.591 846.331C159.897 847.414 159.089 847.862 158.286 847.61C157.483 847.357 156.728 846.417 156.134 844.929C155.751 843.972 155.448 842.82 155.241 841.552C155.85 837.486 156.362 833.227 156.759 828.862ZM108.067 883.588L151.537 897.886C152.355 898.155 152.931 900.517 152.824 903.162C152.717 905.807 151.966 907.732 151.148 907.463L107.678 893.165C106.86 892.896 106.283 890.534 106.391 887.889C106.498 885.244 107.249 883.319 108.067 883.588ZM92.7918 54.3669C92.2276 68.257 89.9303 81.0005 86.4053 89.7943C82.8804 98.5877 78.4166 102.711 73.9959 101.257C69.5753 99.803 65.5597 92.8906 62.8328 82.0408C60.106 71.1907 58.891 57.292 59.4553 43.4019C59.4553 43.4019 68.5146 57.9914 76.1236 48.8844C83.7326 39.7774 92.7918 54.3669 92.7918 54.3669ZM96.9214 91.811C95.8007 97.0811 94.5147 101.778 93.1219 105.639C92.274 107.48 91.5536 109.231 90.8854 110.854L90.8854 110.855C87.3828 119.367 85.3156 124.391 73.8395 120.616C61.8657 116.678 60.5306 111.557 57.2799 99.0889C56.8206 97.3275 56.3231 95.4194 55.752 93.3472C51.1383 76.6078 51.4853 61.396 52.2592 42.3453L57.0216 43.9118C55.9192 71.0478 59.4838 85.4306 59.4838 85.4306C59.4838 85.4306 62.452 103.939 74.3579 107.855C86.2638 111.771 89.9167 95.4406 89.9167 95.4406C89.9167 95.4406 94.7919 77.3635 95.6998 55.0162L100.692 56.6582C101.33 56.3185 101.987 56.1955 102.647 56.3002C104.31 56.5642 105.904 58.2604 107.193 61.1372C108.482 64.0141 109.397 67.918 109.802 72.2695C110.206 76.6209 110.08 81.188 109.44 85.2926C108.8 89.3971 107.682 92.8205 106.251 95.0542C104.82 97.2878 103.153 98.213 101.497 97.6922C99.8412 97.1715 98.2845 95.2321 97.0586 92.1628C97.0123 92.0469 96.9665 91.9296 96.9214 91.811ZM100.381 68.3105C101.009 67.3342 101.733 66.8723 102.465 66.9885C103.272 67.1165 104.045 67.9389 104.67 69.3338C105.295 70.7287 105.738 72.6216 105.934 74.7315C106.131 76.8414 106.069 79.0558 105.759 81.046C105.449 83.0362 104.907 84.696 104.213 85.779C103.519 86.8623 102.711 87.3107 101.908 87.0582C101.105 86.8058 100.35 85.8655 99.7558 84.3772C99.3733 83.4199 99.0703 82.2686 98.8627 81.0007C99.4718 76.9342 99.9844 72.6754 100.381 68.3105ZM51.6893 123.036L95.1586 137.334C95.977 137.603 96.5534 139.965 96.4459 142.61C96.3385 145.255 95.5879 147.181 94.7695 146.911L51.3002 132.614C50.4818 132.344 49.9054 129.982 50.0129 127.337C50.1203 124.693 50.8709 122.767 51.6893 123.036ZM782.671 842.651C782.105 852.676 780.296 861.711 777.64 867.77C774.984 873.828 771.699 876.413 768.509 874.956C765.318 873.498 762.483 868.118 760.627 859.999C758.771 851.88 758.046 841.687 758.611 831.662C758.611 831.662 765.019 843.071 770.641 837.157C776.263 831.243 782.671 842.651 782.671 842.651ZM785.245 870.19C784.373 873.911 783.388 877.201 782.334 879.875C781.698 881.134 781.156 882.338 780.653 883.455C778.016 889.312 776.46 892.768 768.177 888.985C759.536 885.038 758.625 881.202 756.407 871.861C756.093 870.541 755.754 869.112 755.363 867.557C752.204 854.994 752.627 843.99 753.403 830.241L756.84 831.811C755.735 851.395 758.159 862.154 758.159 862.154C758.159 862.154 760.104 875.85 768.697 879.775C777.29 883.699 780.123 872.185 780.123 872.185C780.123 872.185 783.863 859.516 784.773 843.387L788.376 845.033C788.843 844.844 789.32 844.815 789.798 844.951C791.001 845.294 792.139 846.669 793.042 848.874C793.944 851.078 794.564 853.993 794.809 857.187C795.053 860.38 794.91 863.682 794.4 866.601C793.89 869.52 793.04 871.902 791.977 873.392C790.914 874.882 789.694 875.402 788.499 874.873C787.303 874.345 786.196 872.796 785.341 870.458C785.309 870.37 785.277 870.28 785.245 870.19ZM788.02 853.457C788.486 852.806 789.016 852.537 789.546 852.688C790.13 852.854 790.681 853.521 791.119 854.59C791.557 855.659 791.857 857.072 791.976 858.621C792.094 860.169 792.025 861.77 791.778 863.185C791.53 864.601 791.118 865.756 790.603 866.478C790.087 867.201 789.496 867.453 788.916 867.196C788.337 866.94 787.8 866.189 787.385 865.055C787.119 864.326 786.912 863.463 786.775 862.525C787.263 859.63 787.683 856.588 788.02 853.457ZM752.082 888.724L783.455 903.053C784.046 903.323 784.437 905.089 784.329 906.998C784.222 908.906 783.656 910.235 783.065 909.965L751.692 895.636C751.101 895.366 750.71 893.6 750.818 891.692C750.925 889.783 751.491 888.454 752.082 888.724ZM1127.16 454.736C1125.45 464.508 1122.58 472.133 1119.18 475.936C1115.77 479.737 1112.11 479.404 1109 475.009C1105.89 470.614 1103.59 462.518 1102.59 452.5C1101.6 442.483 1102 431.366 1103.7 421.594C1103.7 421.594 1109 439.123 1115.43 438.165C1121.86 437.207 1127.16 454.736 1127.16 454.736ZM1126.71 485.332C1125.39 488.357 1124.01 490.837 1122.63 492.622C1121.84 493.336 1121.15 494.079 1120.51 494.768C1117.14 498.38 1115.16 500.512 1107.09 489.103C1098.66 477.199 1098.16 472.435 1096.93 460.835L1096.93 460.835C1096.76 459.196 1096.57 457.421 1096.34 455.47C1094.51 439.709 1096.18 428.804 1098.52 415.402L1101.87 420.136C1098.54 439.226 1099.82 452.468 1099.82 452.468C1099.82 452.468 1100.28 468.289 1108.65 480.125C1117.03 491.962 1121.23 482.723 1121.23 482.723C1121.23 482.723 1126.49 473.123 1129.23 457.402L1132.74 462.365C1133.24 462.596 1133.74 463 1134.21 463.573C1135.41 465.019 1136.42 467.464 1137.1 470.546C1137.78 473.629 1138.09 477.183 1137.98 480.682C1137.87 484.181 1137.35 487.438 1136.5 489.97C1135.65 492.501 1134.51 494.173 1133.25 494.735C1132 495.298 1130.69 494.722 1129.52 493.093C1128.35 491.464 1127.39 488.869 1126.78 485.693C1126.75 485.573 1126.73 485.453 1126.71 485.332ZM1131.43 470.685C1131.98 470.441 1132.56 470.647 1133.08 471.283C1133.66 471.984 1134.16 473.17 1134.48 474.664C1134.81 476.158 1134.96 477.882 1134.91 479.578C1134.86 481.275 1134.61 482.854 1134.2 484.082C1133.78 485.309 1133.23 486.119 1132.62 486.392C1132.01 486.665 1131.38 486.386 1130.81 485.596C1130.24 484.806 1129.78 483.548 1129.48 482.008C1129.29 481.018 1129.17 479.944 1129.14 478.857C1129.96 476.331 1130.73 473.59 1131.43 470.685ZM1090.6 474.206L1121.18 517.422C1121.76 518.236 1121.96 520.404 1121.64 522.264C1121.31 524.125 1120.58 524.974 1120 524.16L1089.42 480.944C1088.85 480.13 1088.65 477.962 1088.97 476.102C1089.29 474.241 1090.02 473.392 1090.6 474.206ZM1013.15 169.917C1013.83 180.655 1013.12 191.648 1011.19 200.479C1009.25 209.31 1006.24 215.254 1002.83 217.005C999.408 218.755 995.861 216.169 992.964 209.814C990.067 203.459 988.058 193.856 987.378 183.118C987.378 183.118 995.302 188.203 1000.26 176.518C1005.23 164.832 1013.15 169.917 1013.15 169.917ZM1019.2 195.238C1018.78 199.893 1018.19 204.227 1017.46 208.005C1016.97 209.924 1016.57 211.694 1016.2 213.336C1014.26 221.943 1013.11 227.022 1004.24 231.566C994.987 236.308 993.583 233.34 990.167 226.112L990.167 226.112C989.684 225.091 989.161 223.985 988.571 222.803C983.797 213.26 982.851 201.674 981.919 186.947L985.601 185.061C986.928 206.039 990.731 214.495 990.731 214.495C990.731 214.495 994.415 226.416 1003.62 221.701C1012.82 216.987 1014.26 202.444 1014.26 202.444C1014.26 202.444 1016.47 185.812 1015.37 168.536L1019.23 166.559C1019.68 165.896 1020.16 165.383 1020.66 165.038C1021.93 164.168 1023.25 164.411 1024.44 165.733C1025.63 167.055 1026.63 169.384 1027.27 172.375C1027.92 175.366 1028.19 178.859 1028.04 182.335C1027.88 185.812 1027.32 189.087 1026.43 191.673C1025.54 194.26 1024.36 196.021 1023.09 196.694C1021.81 197.368 1020.49 196.918 1019.33 195.412C1019.29 195.355 1019.24 195.297 1019.2 195.238ZM1019.92 175.463C1020.32 174.331 1020.82 173.521 1021.38 173.138C1021.99 172.716 1022.63 172.834 1023.21 173.475C1023.79 174.116 1024.27 175.246 1024.58 176.696C1024.89 178.146 1025.02 179.839 1024.95 181.525C1024.88 183.211 1024.6 184.799 1024.17 186.053C1023.74 187.307 1023.17 188.161 1022.55 188.487C1021.93 188.814 1021.29 188.596 1020.73 187.866C1020.37 187.396 1020.05 186.731 1019.8 185.917C1019.93 182.488 1019.97 178.978 1019.92 175.463ZM987.889 247.588L1021.49 230.374C1022.13 230.05 1022.74 231.445 1022.87 233.489C1023 235.534 1022.59 237.454 1021.96 237.778L988.357 254.992C987.725 255.316 987.107 253.921 986.977 251.876C986.848 249.832 987.256 247.912 987.889 247.588ZM1055.22 816.665C1055.06 827.566 1053.54 837.862 1050.97 845.287C1048.41 852.711 1045.02 856.657 1041.55 856.255C1038.08 855.854 1034.82 851.138 1032.47 843.146C1030.13 835.153 1028.9 824.539 1029.06 813.638C1029.06 813.638 1036.4 823.494 1042.14 815.151C1047.87 806.808 1055.22 816.665 1055.22 816.665ZM1059.2 845.119C1058.43 849.405 1057.53 853.272 1056.52 856.507C1055.9 858.079 1055.38 859.561 1054.89 860.934C1052.34 868.137 1050.83 872.387 1041.82 871.345C1032.43 870.258 1031.28 866.494 1028.5 857.329C1028.11 856.034 1027.68 854.631 1027.19 853.113C1023.26 840.849 1023.22 828.955 1023.44 814.004L1027.17 814.436C1026.87 835.734 1029.94 846.337 1029.94 846.337C1029.94 846.337 1032.62 860.248 1041.97 861.33C1051.31 862.411 1053.82 849.1 1053.82 849.1C1053.82 849.1 1057.25 834.229 1057.5 816.69L1061.41 817.143C1061.9 816.774 1062.41 816.57 1062.93 816.542C1064.23 816.473 1065.5 817.529 1066.56 819.555C1067.63 821.581 1068.42 824.467 1068.82 827.787C1069.22 831.106 1069.22 834.681 1068.8 837.98C1068.39 841.279 1067.59 844.128 1066.52 846.102C1065.45 848.077 1064.18 849.072 1062.88 848.94C1061.58 848.808 1060.33 847.556 1059.31 845.37C1059.27 845.288 1059.23 845.204 1059.2 845.119ZM1061.41 826.262C1061.88 825.398 1062.43 824.919 1063 824.889C1063.63 824.855 1064.25 825.368 1064.77 826.35C1065.28 827.332 1065.67 828.732 1065.86 830.341C1066.06 831.95 1066.05 833.684 1065.85 835.283C1065.65 836.883 1065.27 838.264 1064.75 839.222C1064.23 840.179 1063.61 840.662 1062.98 840.598C1062.35 840.534 1061.74 839.927 1061.25 838.867C1060.93 838.185 1060.67 837.339 1060.49 836.387C1060.88 833.122 1061.19 829.724 1061.41 826.262ZM1024.64 876.886L1058.75 880.833C1059.4 880.908 1059.89 882.65 1059.86 884.726C1059.83 886.802 1059.29 888.424 1058.65 888.35L1024.53 884.402C1023.89 884.328 1023.39 882.585 1023.42 880.509C1023.45 878.434 1024 876.811 1024.64 876.886ZM537.638 797.011C536.627 812.763 533.667 826.835 529.407 836.132C525.148 845.429 519.939 849.189 514.925 846.585C509.912 843.981 505.506 835.226 502.675 822.246C499.845 809.267 498.823 793.126 499.833 777.374C499.833 777.374 509.801 795.977 518.736 787.192C527.67 778.408 537.638 797.011 537.638 797.011ZM541.371 840.678C539.952 846.461 538.358 851.554 536.665 855.669C535.648 857.592 534.778 859.439 533.972 861.152C529.746 870.133 527.251 875.433 514.237 868.673C500.658 861.62 499.267 855.484 495.881 840.543L495.881 840.543L495.881 840.543C495.403 838.432 494.884 836.146 494.286 833.657C489.455 813.545 490.252 796.237 491.638 774.632L497.039 777.438C495.065 808.211 498.759 825.406 498.759 825.406C498.759 825.406 501.664 847.188 515.165 854.201C528.667 861.215 533.271 843.332 533.271 843.332C533.271 843.332 539.318 823.715 540.944 798.373L546.605 801.313C547.343 801.061 548.097 801.061 548.848 801.321C550.742 801.977 552.519 804.255 553.916 807.817C555.313 811.38 556.256 816.036 556.604 821.094C556.951 826.153 556.686 831.345 555.847 835.899C555.008 840.453 553.64 844.126 551.947 846.373C550.253 848.621 548.323 849.322 546.445 848.374C544.566 847.426 542.838 844.878 541.518 841.11C541.469 840.967 541.419 840.823 541.371 840.678ZM545.943 814.562C546.686 813.58 547.526 813.207 548.359 813.496C549.278 813.814 550.139 814.918 550.817 816.646C551.494 818.373 551.951 820.63 552.12 823.083C552.289 825.536 552.16 828.053 551.753 830.261C551.346 832.469 550.683 834.25 549.862 835.34C549.04 836.43 548.105 836.77 547.194 836.31C546.283 835.851 545.445 834.615 544.805 832.788C544.394 831.613 544.078 830.232 543.874 828.739C544.677 824.222 545.375 819.465 545.943 814.562ZM488.862 866.716L538.158 892.321C539.086 892.803 539.682 895.626 539.49 898.625C539.298 901.624 538.389 903.665 537.461 903.182L488.165 877.577C487.237 877.095 486.641 874.273 486.833 871.273C487.026 868.274 487.934 866.234 488.862 866.716Z" fill="#2F2105"/>
</g>
<g style="mix-blend-mode:overlay">
<path fill-rule="evenodd" clip-rule="evenodd" d="M1465.28 884.005C1464.84 899.673 1462.44 914.245 1458.6 924.517C1454.76 934.788 1449.8 939.916 1444.81 938.773C1439.82 937.631 1435.22 930.31 1432.01 918.424C1428.79 906.536 1427.24 891.056 1427.68 875.388C1427.68 875.388 1438.06 890.773 1446.48 879.696C1454.91 868.62 1465.28 884.005 1465.28 884.005ZM1470.44 925.614C1469.25 931.66 1467.87 937.08 1466.36 941.572C1465.43 943.734 1464.65 945.781 1463.92 947.68L1463.92 947.68L1463.92 947.68C1460.1 957.633 1457.85 963.507 1444.9 960.541C1431.39 957.446 1429.82 951.841 1426 938.194C1425.46 936.266 1424.88 934.177 1424.21 931.913C1418.79 913.618 1418.97 896.489 1419.58 875L1424.95 876.231C1424.09 906.841 1428.29 922.604 1428.29 922.604C1428.29 922.604 1431.88 943.068 1445.31 946.146C1458.74 949.223 1462.62 930.47 1462.62 930.47C1462.62 930.47 1467.85 909.619 1468.56 884.411L1474.19 885.702C1474.9 885.249 1475.64 885.038 1476.38 885.082C1478.26 885.194 1480.07 886.923 1481.56 890.012C1483.05 893.101 1484.13 897.385 1484.64 902.229C1485.16 907.073 1485.08 912.218 1484.41 916.901C1483.75 921.583 1482.54 925.554 1480.96 928.222C1479.39 930.89 1477.53 932.115 1475.66 931.714C1473.79 931.313 1472.02 929.307 1470.6 925.995C1470.54 925.869 1470.49 925.743 1470.44 925.614ZM1474 898.827C1474.69 897.661 1475.5 897.062 1476.33 897.111C1477.23 897.165 1478.11 898.003 1478.83 899.501C1479.56 900.999 1480.08 903.076 1480.33 905.425C1480.58 907.773 1480.54 910.268 1480.22 912.538C1479.9 914.809 1479.31 916.734 1478.55 918.028C1477.78 919.322 1476.88 919.915 1475.98 919.721C1475.07 919.526 1474.21 918.554 1473.52 916.948C1473.08 915.915 1472.72 914.655 1472.47 913.254C1473.1 908.617 1473.62 903.776 1474 898.827ZM1420.05 965.719L1469.08 976.955C1470.01 977.167 1470.69 979.757 1470.6 982.74C1470.52 985.723 1469.7 987.97 1468.78 987.759L1419.74 976.523C1418.82 976.311 1418.14 973.721 1418.22 970.738C1418.31 967.755 1419.13 965.508 1420.05 965.719ZM1466.91 1373.84C1466.38 1383.18 1464.69 1391.6 1462.22 1397.25C1459.75 1402.89 1456.68 1405.3 1453.71 1403.94C1450.74 1402.59 1448.1 1397.57 1446.37 1390.01C1444.64 1382.44 1443.96 1372.94 1444.49 1363.6C1444.49 1363.6 1450.46 1374.23 1455.7 1368.72C1460.94 1363.21 1466.91 1373.84 1466.91 1373.84ZM1469.31 1399.5C1468.49 1402.97 1467.58 1406.04 1466.59 1408.53C1466 1409.7 1465.5 1410.82 1465.03 1411.86C1462.57 1417.32 1461.12 1420.54 1453.4 1417.02C1445.35 1413.34 1444.5 1409.76 1442.44 1401.06C1442.14 1399.83 1441.83 1398.5 1441.46 1397.05C1438.52 1385.34 1438.91 1375.09 1439.64 1362.28L1442.84 1363.74C1441.81 1381.99 1444.07 1392.02 1444.07 1392.02C1444.07 1392.02 1445.88 1404.78 1453.89 1408.44C1461.89 1412.09 1464.53 1401.36 1464.53 1401.36C1464.53 1401.36 1468.02 1389.56 1468.87 1374.53L1472.22 1376.06C1472.66 1375.89 1473.1 1375.86 1473.55 1375.99C1474.67 1376.31 1475.73 1377.59 1476.57 1379.64C1477.41 1381.7 1477.99 1384.41 1478.22 1387.39C1478.45 1390.36 1478.31 1393.44 1477.84 1396.16C1477.36 1398.88 1476.57 1401.1 1475.58 1402.49C1474.59 1403.88 1473.45 1404.36 1472.34 1403.87C1471.22 1403.38 1470.19 1401.93 1469.4 1399.75C1469.37 1399.67 1469.34 1399.59 1469.31 1399.5ZM1471.89 1383.91C1472.33 1383.31 1472.82 1383.05 1473.31 1383.2C1473.86 1383.35 1474.37 1383.97 1474.78 1384.97C1475.19 1385.96 1475.47 1387.28 1475.58 1388.72C1475.69 1390.17 1475.62 1391.66 1475.39 1392.98C1475.16 1394.3 1474.78 1395.37 1474.3 1396.05C1473.82 1396.72 1473.27 1396.95 1472.73 1396.71C1472.19 1396.48 1471.69 1395.78 1471.3 1394.72C1471.05 1394.04 1470.86 1393.24 1470.73 1392.36C1471.19 1389.66 1471.58 1386.83 1471.89 1383.91ZM1438.41 1416.77L1467.64 1430.13C1468.19 1430.38 1468.55 1432.02 1468.45 1433.8C1468.35 1435.58 1467.83 1436.82 1467.28 1436.57L1438.04 1423.22C1437.49 1422.96 1437.13 1421.32 1437.23 1419.54C1437.33 1417.76 1437.85 1416.52 1438.41 1416.77ZM1171.57 1031.06C1172.27 1038.48 1172 1046.32 1170.82 1052.84C1169.65 1059.36 1167.66 1064.03 1165.3 1065.83C1162.94 1067.63 1160.39 1066.41 1158.23 1062.44C1156.07 1058.46 1154.46 1052.06 1153.76 1044.64C1153.76 1044.64 1159.42 1046.88 1162.66 1037.85C1165.9 1028.82 1171.57 1031.06 1171.57 1031.06ZM1176.34 1047.82C1176.14 1051.15 1175.82 1054.29 1175.38 1057.07C1175.08 1058.5 1174.84 1059.8 1174.61 1061.02C1173.43 1067.38 1172.73 1071.14 1166.6 1075.81C1160.2 1080.69 1159.15 1078.84 1156.6 1074.34C1156.24 1073.71 1155.86 1073.02 1155.42 1072.29C1151.87 1066.39 1150.97 1058.42 1150.01 1048.24L1152.55 1046.3C1153.92 1060.8 1156.76 1066.1 1156.76 1066.1C1156.76 1066.1 1159.59 1073.85 1165.95 1069C1172.31 1064.15 1173.02 1053.7 1173.02 1053.7C1173.02 1053.7 1174.23 1041.66 1173.1 1029.72L1175.77 1027.69C1176.07 1027.15 1176.4 1026.71 1176.74 1026.38C1177.61 1025.56 1178.55 1025.51 1179.41 1026.23C1180.27 1026.96 1181.02 1028.43 1181.53 1030.42C1182.05 1032.41 1182.31 1034.82 1182.27 1037.28C1182.24 1039.75 1181.91 1042.14 1181.34 1044.1C1180.77 1046.07 1179.98 1047.5 1179.1 1048.19C1178.21 1048.87 1177.28 1048.78 1176.44 1047.92C1176.4 1047.88 1176.37 1047.85 1176.34 1047.82ZM1176.44 1033.82C1176.69 1032.96 1177.03 1032.31 1177.41 1031.94C1177.83 1031.55 1178.28 1031.52 1178.7 1031.87C1179.12 1032.23 1179.48 1032.94 1179.73 1033.9C1179.98 1034.87 1180.11 1036.04 1180.09 1037.23C1180.07 1038.43 1179.91 1039.59 1179.64 1040.54C1179.36 1041.49 1178.98 1042.19 1178.55 1042.52C1178.12 1042.85 1177.67 1042.81 1177.26 1042.39C1177 1042.12 1176.76 1041.7 1176.56 1041.18C1176.59 1038.75 1176.55 1036.28 1176.44 1033.82ZM1155.45 1089.8L1178.68 1072.09C1179.11 1071.75 1179.57 1072.63 1179.71 1074.04C1179.84 1075.46 1179.59 1076.87 1179.16 1077.21L1155.93 1094.91C1155.49 1095.25 1155.03 1094.37 1154.9 1092.96C1154.77 1091.54 1155.01 1090.13 1155.45 1089.8ZM870.058 1189.06C871.33 1202.57 870.842 1216.82 868.702 1228.69C866.562 1240.56 862.945 1249.07 858.646 1252.34C854.348 1255.62 849.72 1253.4 845.781 1246.17C841.843 1238.93 838.915 1227.28 837.643 1213.78C837.643 1213.78 847.954 1217.85 853.851 1201.42C859.748 1184.98 870.058 1189.06 870.058 1189.06ZM878.741 1219.55C878.381 1225.63 877.792 1231.34 876.997 1236.39C876.447 1238.99 876.003 1241.37 875.592 1243.58L875.592 1243.58L875.592 1243.58C873.436 1255.16 872.164 1262 861.005 1270.51C849.362 1279.38 847.458 1276.02 842.823 1267.83L842.823 1267.83C842.168 1266.68 841.459 1265.42 840.66 1264.09C834.205 1253.36 832.56 1238.85 830.816 1220.33L835.446 1216.8C837.931 1243.18 843.106 1252.82 843.106 1252.82C843.106 1252.82 848.26 1266.93 859.836 1258.1C871.413 1249.27 872.698 1230.26 872.698 1230.26C872.698 1230.26 874.893 1208.35 872.846 1186.62L877.7 1182.92C878.25 1181.93 878.844 1181.13 879.472 1180.54C881.052 1179.04 882.754 1178.95 884.325 1180.28C885.895 1181.6 887.251 1184.27 888.19 1187.9C889.129 1191.52 889.602 1195.9 889.538 1200.38C889.474 1204.87 888.877 1209.22 887.836 1212.8C886.794 1216.37 885.364 1218.98 883.756 1220.23C882.149 1221.48 880.451 1221.31 878.914 1219.74C878.856 1219.68 878.798 1219.62 878.741 1219.55ZM878.919 1194.08C879.376 1192.51 879.99 1191.33 880.685 1190.67C881.452 1189.94 882.277 1189.9 883.038 1190.54C883.8 1191.18 884.457 1192.48 884.913 1194.23C885.368 1195.99 885.597 1198.11 885.566 1200.29C885.535 1202.46 885.246 1204.58 884.741 1206.31C884.236 1208.04 883.542 1209.31 882.763 1209.91C881.984 1210.52 881.16 1210.43 880.415 1209.67C879.936 1209.18 879.505 1208.43 879.148 1207.47C879.188 1203.05 879.114 1198.55 878.919 1194.08ZM840.722 1295.95L882.99 1263.73C883.786 1263.12 884.627 1264.71 884.869 1267.28C885.112 1269.86 884.663 1272.43 883.867 1273.04L841.599 1305.27C840.804 1305.87 839.962 1304.28 839.72 1301.71C839.478 1299.14 839.927 1296.56 840.722 1295.95ZM777.17 1675.92C776.606 1689.81 774.308 1702.55 770.783 1711.35C767.258 1720.14 762.795 1724.26 758.374 1722.81C753.953 1721.35 749.938 1714.44 747.211 1703.59C744.484 1692.74 743.269 1678.84 743.833 1664.95C743.833 1664.95 752.893 1679.54 760.502 1670.44C768.111 1661.33 777.17 1675.92 777.17 1675.92ZM781.299 1713.36C780.179 1718.63 778.893 1723.33 777.5 1727.19C776.652 1729.03 775.932 1730.78 775.263 1732.41L775.263 1732.41C771.761 1740.92 769.694 1745.94 758.218 1742.17C746.244 1738.23 744.909 1733.11 741.658 1720.64C741.199 1718.88 740.701 1716.97 740.13 1714.9C735.516 1698.16 735.863 1682.95 736.637 1663.9L741.4 1665.46C740.297 1692.6 743.862 1706.98 743.862 1706.98C743.862 1706.98 746.83 1725.49 758.736 1729.41C770.642 1733.32 774.295 1716.99 774.295 1716.99C774.295 1716.99 779.17 1698.92 780.078 1676.57L785.07 1678.21C785.708 1677.87 786.365 1677.75 787.025 1677.85C788.688 1678.12 790.282 1679.81 791.571 1682.69C792.86 1685.57 793.775 1689.47 794.18 1693.82C794.584 1698.17 794.458 1702.74 793.818 1706.84C793.178 1710.95 792.06 1714.37 790.629 1716.61C789.198 1718.84 787.531 1719.76 785.875 1719.24C784.219 1718.72 782.663 1716.78 781.437 1713.71C781.39 1713.6 781.345 1713.48 781.299 1713.36ZM784.759 1689.86C785.387 1688.89 786.111 1688.42 786.843 1688.54C787.65 1688.67 788.423 1689.49 789.048 1690.89C789.673 1692.28 790.116 1694.17 790.313 1696.28C790.509 1698.39 790.447 1700.61 790.137 1702.6C789.827 1704.59 789.285 1706.25 788.591 1707.33C787.897 1708.41 787.089 1708.86 786.286 1708.61C785.483 1708.36 784.728 1707.42 784.134 1705.93C783.751 1704.97 783.448 1703.82 783.241 1702.55C783.85 1698.49 784.362 1694.23 784.759 1689.86ZM736.067 1744.59L779.537 1758.89C780.355 1759.15 780.931 1761.52 780.824 1764.16C780.717 1766.81 779.966 1768.73 779.148 1768.46L735.678 1754.17C734.86 1753.9 734.283 1751.53 734.391 1748.89C734.498 1746.24 735.249 1744.32 736.067 1744.59ZM720.792 915.367C720.228 929.257 717.93 942 714.405 950.794C710.88 959.588 706.417 963.711 701.996 962.257C697.575 960.803 693.56 953.891 690.833 943.041C688.106 932.191 686.891 918.292 687.455 904.402C687.455 904.402 696.515 918.991 704.124 909.884C711.733 900.777 720.792 915.367 720.792 915.367ZM724.921 952.811C723.801 958.081 722.515 962.778 721.122 966.639C720.274 968.48 719.554 970.231 718.885 971.854L718.885 971.855C715.383 980.367 713.316 985.391 701.839 981.616C689.866 977.678 688.531 972.557 685.28 960.089C684.821 958.327 684.323 956.419 683.752 954.347C679.138 937.608 679.485 922.396 680.259 903.345L685.022 904.912C683.919 932.048 687.484 946.431 687.484 946.431C687.484 946.431 690.452 964.939 702.358 968.855C714.264 972.771 717.917 956.441 717.917 956.441C717.917 956.441 722.792 938.364 723.7 916.016L728.692 917.658C729.33 917.319 729.987 917.196 730.647 917.3C732.31 917.564 733.904 919.26 735.193 922.137C736.482 925.014 737.397 928.918 737.802 933.269C738.206 937.621 738.08 942.188 737.44 946.293C736.8 950.397 735.682 953.821 734.251 956.054C732.82 958.288 731.153 959.213 729.497 958.692C727.841 958.171 726.285 956.232 725.059 953.163C725.012 953.047 724.967 952.93 724.921 952.811ZM728.381 929.31C729.009 928.334 729.733 927.872 730.465 927.988C731.272 928.116 732.045 928.939 732.67 930.334C733.295 931.729 733.738 933.622 733.934 935.731C734.131 937.841 734.069 940.056 733.759 942.046C733.449 944.036 732.907 945.696 732.213 946.779C731.519 947.862 730.711 948.311 729.908 948.058C729.105 947.806 728.35 946.866 727.756 945.377C727.373 944.42 727.07 943.269 726.863 942.001C727.472 937.934 727.984 933.675 728.381 929.31ZM679.689 984.036L723.159 998.334C723.977 998.603 724.553 1000.97 724.446 1003.61C724.338 1006.25 723.588 1008.18 722.769 1007.91L679.3 993.614C678.482 993.344 677.905 990.982 678.013 988.337C678.12 985.693 678.871 983.767 679.689 984.036ZM1410.67 1703.65C1410.11 1713.68 1408.3 1722.71 1405.64 1728.77C1402.98 1734.83 1399.7 1737.41 1396.51 1735.96C1393.32 1734.5 1390.48 1729.12 1388.63 1721C1386.77 1712.88 1386.05 1702.69 1386.61 1692.66C1386.61 1692.66 1393.02 1704.07 1398.64 1698.16C1404.26 1692.24 1410.67 1703.65 1410.67 1703.65ZM1413.25 1731.19C1412.37 1734.91 1411.39 1738.2 1410.33 1740.88C1409.7 1742.13 1409.16 1743.34 1408.65 1744.46C1406.02 1750.31 1404.46 1753.77 1396.18 1749.98C1387.54 1746.04 1386.62 1742.2 1384.41 1732.86C1384.09 1731.54 1383.75 1730.11 1383.36 1728.56C1380.2 1715.99 1380.63 1704.99 1381.4 1691.24L1384.84 1692.81C1383.74 1712.4 1386.16 1723.15 1386.16 1723.15C1386.16 1723.15 1388.1 1736.85 1396.7 1740.77C1405.29 1744.7 1408.12 1733.19 1408.12 1733.19C1408.12 1733.19 1411.86 1720.52 1412.77 1704.39L1416.38 1706.03C1416.84 1705.84 1417.32 1705.81 1417.8 1705.95C1419 1706.29 1420.14 1707.67 1421.04 1709.87C1421.94 1712.08 1422.56 1714.99 1422.81 1718.19C1423.05 1721.38 1422.91 1724.68 1422.4 1727.6C1421.89 1730.52 1421.04 1732.9 1419.98 1734.39C1418.91 1735.88 1417.69 1736.4 1416.5 1735.87C1415.3 1735.34 1414.2 1733.8 1413.34 1731.46C1413.31 1731.37 1413.28 1731.28 1413.25 1731.19ZM1416.02 1714.46C1416.49 1713.81 1417.02 1713.54 1417.55 1713.69C1418.13 1713.85 1418.68 1714.52 1419.12 1715.59C1419.56 1716.66 1419.86 1718.07 1419.98 1719.62C1420.09 1721.17 1420.02 1722.77 1419.78 1724.19C1419.53 1725.6 1419.12 1726.76 1418.6 1727.48C1418.09 1728.2 1417.5 1728.45 1416.92 1728.2C1416.34 1727.94 1415.8 1727.19 1415.39 1726.06C1415.12 1725.33 1414.91 1724.46 1414.78 1723.52C1415.26 1720.63 1415.68 1717.59 1416.02 1714.46ZM1380.08 1749.72L1411.45 1764.05C1412.05 1764.32 1412.44 1766.09 1412.33 1768C1412.22 1769.91 1411.66 1771.24 1411.06 1770.97L1379.69 1756.64C1379.1 1756.37 1378.71 1754.6 1378.82 1752.69C1378.93 1750.78 1379.49 1749.45 1380.08 1749.72ZM1755.16 1315.74C1753.45 1325.51 1750.58 1333.13 1747.18 1336.94C1743.77 1340.74 1740.11 1340.4 1737 1336.01C1733.89 1331.61 1731.59 1323.52 1730.59 1313.5C1729.6 1303.48 1730 1292.37 1731.7 1282.59C1731.7 1282.59 1737 1300.12 1743.43 1299.17C1749.86 1298.21 1755.16 1315.74 1755.16 1315.74ZM1754.71 1346.33C1753.39 1349.36 1752.01 1351.84 1750.63 1353.62C1749.84 1354.34 1749.15 1355.08 1748.51 1355.77C1745.14 1359.38 1743.16 1361.51 1735.09 1350.1C1726.66 1338.2 1726.16 1333.43 1724.93 1321.84L1724.93 1321.83C1724.76 1320.2 1724.57 1318.42 1724.34 1316.47C1722.51 1300.71 1724.18 1289.8 1726.52 1276.4L1729.87 1281.14C1726.54 1300.23 1727.82 1313.47 1727.82 1313.47C1727.82 1313.47 1728.28 1329.29 1736.65 1341.13C1745.03 1352.96 1749.23 1343.72 1749.23 1343.72C1749.23 1343.72 1754.49 1334.12 1757.23 1318.4L1760.74 1323.36C1761.24 1323.6 1761.74 1324 1762.21 1324.57C1763.41 1326.02 1764.42 1328.46 1765.1 1331.55C1765.78 1334.63 1766.09 1338.18 1765.98 1341.68C1765.87 1345.18 1765.35 1348.44 1764.5 1350.97C1763.65 1353.5 1762.51 1355.17 1761.25 1355.74C1760 1356.3 1758.69 1355.72 1757.52 1354.09C1756.35 1352.46 1755.39 1349.87 1754.78 1346.69C1754.75 1346.57 1754.73 1346.45 1754.71 1346.33ZM1759.43 1331.68C1759.98 1331.44 1760.56 1331.65 1761.08 1332.28C1761.66 1332.98 1762.16 1334.17 1762.48 1335.66C1762.81 1337.16 1762.96 1338.88 1762.91 1340.58C1762.86 1342.27 1762.61 1343.85 1762.2 1345.08C1761.78 1346.31 1761.23 1347.12 1760.62 1347.39C1760.01 1347.67 1759.38 1347.39 1758.81 1346.6C1758.24 1345.81 1757.78 1344.55 1757.48 1343.01C1757.29 1342.02 1757.17 1340.94 1757.14 1339.86C1757.96 1337.33 1758.73 1334.59 1759.43 1331.68ZM1718.6 1335.21L1749.18 1378.42C1749.76 1379.24 1749.96 1381.4 1749.64 1383.26C1749.31 1385.12 1748.58 1385.97 1748 1385.16L1717.42 1341.94C1716.85 1341.13 1716.65 1338.96 1716.97 1337.1C1717.29 1335.24 1718.02 1334.39 1718.6 1335.21ZM1641.15 1030.92C1641.83 1041.66 1641.12 1052.65 1639.19 1061.48C1637.25 1070.31 1634.24 1076.25 1630.83 1078C1627.41 1079.76 1623.86 1077.17 1620.96 1070.81C1618.07 1064.46 1616.06 1054.86 1615.38 1044.12C1615.38 1044.12 1623.3 1049.2 1628.26 1037.52C1633.23 1025.83 1641.15 1030.92 1641.15 1030.92ZM1647.2 1056.24C1646.78 1060.89 1646.19 1065.23 1645.46 1069C1644.97 1070.92 1644.57 1072.69 1644.2 1074.34C1642.26 1082.94 1641.11 1088.02 1632.24 1092.57C1622.99 1097.31 1621.58 1094.34 1618.17 1087.11L1618.17 1087.11C1617.68 1086.09 1617.16 1084.98 1616.57 1083.8C1611.8 1074.26 1610.85 1062.67 1609.92 1047.95L1613.6 1046.06C1614.93 1067.04 1618.73 1075.5 1618.73 1075.5C1618.73 1075.5 1622.41 1087.42 1631.62 1082.7C1640.82 1077.99 1642.26 1063.44 1642.26 1063.44C1642.26 1063.44 1644.47 1046.81 1643.37 1029.54L1647.23 1027.56C1647.68 1026.9 1648.16 1026.38 1648.66 1026.04C1649.93 1025.17 1651.25 1025.41 1652.44 1026.73C1653.63 1028.06 1654.63 1030.38 1655.27 1033.38C1655.92 1036.37 1656.19 1039.86 1656.04 1043.34C1655.88 1046.81 1655.32 1050.09 1654.43 1052.67C1653.54 1055.26 1652.36 1057.02 1651.09 1057.69C1649.81 1058.37 1648.49 1057.92 1647.33 1056.41C1647.29 1056.36 1647.24 1056.3 1647.2 1056.24ZM1647.92 1036.46C1648.32 1035.33 1648.82 1034.52 1649.38 1034.14C1649.99 1033.72 1650.63 1033.83 1651.21 1034.48C1651.79 1035.12 1652.27 1036.25 1652.58 1037.7C1652.89 1039.15 1653.02 1040.84 1652.95 1042.53C1652.88 1044.21 1652.6 1045.8 1652.17 1047.05C1651.74 1048.31 1651.17 1049.16 1650.55 1049.49C1649.93 1049.81 1649.29 1049.6 1648.73 1048.87C1648.37 1048.4 1648.05 1047.73 1647.8 1046.92C1647.93 1043.49 1647.97 1039.98 1647.92 1036.46ZM1615.89 1108.59L1649.49 1091.37C1650.13 1091.05 1650.74 1092.44 1650.87 1094.49C1651 1096.53 1650.59 1098.45 1649.96 1098.78L1616.36 1115.99C1615.72 1116.32 1615.11 1114.92 1614.98 1112.88C1614.85 1110.83 1615.26 1108.91 1615.89 1108.59ZM1683.22 1677.66C1683.06 1688.57 1681.54 1698.86 1678.97 1706.29C1676.41 1713.71 1673.02 1717.66 1669.55 1717.26C1666.08 1716.85 1662.82 1712.14 1660.47 1704.15C1658.13 1696.15 1656.9 1685.54 1657.06 1674.64C1657.06 1674.64 1664.4 1684.49 1670.14 1676.15C1675.87 1667.81 1683.22 1677.66 1683.22 1677.66ZM1687.2 1706.12C1686.43 1710.41 1685.53 1714.27 1684.52 1717.51C1683.9 1719.08 1683.38 1720.56 1682.89 1721.93C1680.34 1729.14 1678.83 1733.39 1669.82 1732.35C1660.43 1731.26 1659.28 1727.49 1656.5 1718.33C1656.11 1717.03 1655.68 1715.63 1655.19 1714.11C1651.26 1701.85 1651.22 1689.96 1651.44 1675L1655.17 1675.44C1654.87 1696.73 1657.94 1707.34 1657.94 1707.34C1657.94 1707.34 1660.62 1721.25 1669.97 1722.33C1679.31 1723.41 1681.82 1710.1 1681.82 1710.1C1681.82 1710.1 1685.25 1695.23 1685.5 1677.69L1689.41 1678.14C1689.9 1677.77 1690.41 1677.57 1690.93 1677.54C1692.23 1677.47 1693.5 1678.53 1694.56 1680.56C1695.63 1682.58 1696.42 1685.47 1696.82 1688.79C1697.22 1692.11 1697.22 1695.68 1696.8 1698.98C1696.39 1702.28 1695.59 1705.13 1694.52 1707.1C1693.45 1709.08 1692.18 1710.07 1690.88 1709.94C1689.58 1709.81 1688.33 1708.56 1687.31 1706.37C1687.27 1706.29 1687.23 1706.2 1687.2 1706.12ZM1689.41 1687.26C1689.88 1686.4 1690.43 1685.92 1691 1685.89C1691.63 1685.86 1692.25 1686.37 1692.77 1687.35C1693.28 1688.33 1693.67 1689.73 1693.86 1691.34C1694.06 1692.95 1694.05 1694.68 1693.85 1696.28C1693.65 1697.88 1693.27 1699.26 1692.75 1700.22C1692.23 1701.18 1691.61 1701.66 1690.98 1701.6C1690.35 1701.53 1689.74 1700.93 1689.25 1699.87C1688.93 1699.19 1688.67 1698.34 1688.49 1697.39C1688.88 1694.12 1689.19 1690.72 1689.41 1687.26ZM1652.64 1737.89L1686.75 1741.83C1687.4 1741.91 1687.89 1743.65 1687.86 1745.73C1687.83 1747.8 1687.29 1749.42 1686.65 1749.35L1652.53 1745.4C1651.89 1745.33 1651.39 1743.59 1651.42 1741.51C1651.45 1739.43 1652 1737.81 1652.64 1737.89ZM1165.64 1658.01C1164.63 1673.76 1161.67 1687.83 1157.41 1697.13C1153.15 1706.43 1147.94 1710.19 1142.93 1707.58C1137.91 1704.98 1133.51 1696.23 1130.68 1683.25C1127.85 1670.27 1126.82 1654.13 1127.83 1638.37C1127.83 1638.37 1137.8 1656.98 1146.74 1648.19C1155.67 1639.41 1165.64 1658.01 1165.64 1658.01ZM1169.37 1701.68C1167.95 1707.46 1166.36 1712.55 1164.67 1716.67C1163.65 1718.59 1162.78 1720.44 1161.97 1722.15C1157.75 1731.13 1155.25 1736.43 1142.24 1729.67C1128.66 1722.62 1127.27 1716.48 1123.88 1701.54L1123.88 1701.54L1123.88 1701.54C1123.4 1699.43 1122.88 1697.15 1122.29 1694.66C1117.46 1674.54 1118.25 1657.24 1119.64 1635.63L1125.04 1638.44C1123.06 1669.21 1126.76 1686.41 1126.76 1686.41C1126.76 1686.41 1129.66 1708.19 1143.17 1715.2C1156.67 1722.21 1161.27 1704.33 1161.27 1704.33C1161.27 1704.33 1167.32 1684.72 1168.94 1659.37L1174.6 1662.31C1175.34 1662.06 1176.1 1662.06 1176.85 1662.32C1178.74 1662.98 1180.52 1665.26 1181.92 1668.82C1183.31 1672.38 1184.26 1677.04 1184.6 1682.09C1184.95 1687.15 1184.69 1692.34 1183.85 1696.9C1183.01 1701.45 1181.64 1705.13 1179.95 1707.37C1178.25 1709.62 1176.32 1710.32 1174.44 1709.37C1172.57 1708.43 1170.84 1705.88 1169.52 1702.11C1169.47 1701.97 1169.42 1701.82 1169.37 1701.68ZM1173.94 1675.56C1174.69 1674.58 1175.53 1674.21 1176.36 1674.5C1177.28 1674.81 1178.14 1675.92 1178.82 1677.65C1179.49 1679.37 1179.95 1681.63 1180.12 1684.08C1180.29 1686.54 1180.16 1689.05 1179.75 1691.26C1179.35 1693.47 1178.68 1695.25 1177.86 1696.34C1177.04 1697.43 1176.1 1697.77 1175.19 1697.31C1174.28 1696.85 1173.45 1695.62 1172.81 1693.79C1172.39 1692.61 1172.08 1691.23 1171.87 1689.74C1172.68 1685.22 1173.37 1680.47 1173.94 1675.56ZM1116.86 1727.72L1166.16 1753.32C1167.09 1753.8 1167.68 1756.63 1167.49 1759.62C1167.3 1762.62 1166.39 1764.66 1165.46 1764.18L1116.17 1738.58C1115.24 1738.09 1114.64 1735.27 1114.83 1732.27C1115.03 1729.27 1115.93 1727.23 1116.86 1727.72Z" fill="#2F2105"/>
</g>
</svg>
