<svg width="1440" height="484" viewBox="0 0 1440 484" fill="none" xmlns="http://www.w3.org/2000/svg">
<rect x="-596.808" width="2613.61" height="484" fill="#2F2105"/>
<g style="mix-blend-mode:overlay">
<path fill-rule="evenodd" clip-rule="evenodd" d="M1308.46 33.7804C1307.36 41.3022 1301.39 48.2979 1291.86 53.2287C1282.33 58.1594 1270.02 60.6214 1257.64 60.0728C1245.26 59.5243 1233.82 56.0101 1225.85 50.3037C1217.87 44.597 1214.01 37.1655 1215.11 29.6438C1215.11 29.6438 1240.88 37.0296 1261.79 31.7121C1282.7 26.3946 1308.46 33.7804 1308.46 33.7804ZM1321.26 53.7558C1318.31 56.658 1314.88 59.2598 1311.13 61.4165C1308.83 62.4546 1306.88 63.4373 1305.07 64.3488C1295.59 69.1268 1290 71.9467 1257.86 70.5226C1224.33 69.0368 1220.43 66.3461 1210.94 59.7947C1209.6 58.8691 1208.15 57.8665 1206.48 56.7793C1193.04 47.9968 1193.49 39.7738 1195 29.4576L1208.34 30.0485C1206.19 44.7432 1216.62 52.3105 1216.62 52.3105C1216.62 52.3105 1225.53 62.1348 1258.87 63.6122C1292.21 65.0896 1301.84 56.0869 1301.84 56.0869C1301.84 56.0869 1314.83 46.0771 1316.6 33.9756L1330.58 34.595C1332.34 34.3778 1334.17 34.2765 1336.02 34.2978C1340.66 34.3514 1345.17 35.1813 1348.86 36.6642C1352.55 38.1471 1355.24 40.2039 1356.52 42.5293C1357.79 44.8547 1357.59 47.3247 1355.95 49.5726C1354.31 51.8205 1351.3 53.7266 1347.39 55.0076C1343.47 56.2886 1338.86 56.8765 1334.22 56.6839C1329.58 56.4913 1325.18 55.5283 1321.65 53.9382C1321.52 53.8782 1321.39 53.8174 1321.26 53.7558ZM1330.11 40.8963C1331.82 40.3363 1333.83 40.0485 1335.87 40.0721C1338.13 40.0982 1340.31 40.5006 1342.1 41.2196C1343.89 41.9386 1345.19 42.9359 1345.81 44.0634C1346.43 45.1909 1346.34 46.3885 1345.54 47.4785C1344.74 48.5684 1343.29 49.4926 1341.39 50.1136C1339.49 50.7349 1337.25 51.0199 1335 50.9265C1332.75 50.8332 1330.62 50.3663 1328.91 49.5953C1327.81 49.0993 1326.93 48.4945 1326.3 47.8218C1327.86 45.596 1329.15 43.2717 1330.11 40.8963ZM1196.16 73.0087L1317.89 78.4027C1320.18 78.5043 1321.87 79.7476 1321.66 81.1798C1321.45 82.6119 1319.42 83.6906 1317.13 83.5891L1195.4 78.195C1193.11 78.0935 1191.42 76.8502 1191.63 75.418C1191.84 73.9858 1193.87 72.9071 1196.16 73.0087ZM1312.49 268.935C1311.19 273.419 1307 277.461 1300.86 280.171C1294.71 282.881 1287.11 284.037 1279.73 283.385C1272.35 282.733 1265.79 280.327 1261.5 276.695C1257.21 273.063 1255.53 268.503 1256.84 264.019C1256.84 264.019 1271.66 269.122 1284.67 266.477C1297.67 263.831 1312.49 268.935 1312.49 268.935ZM1318.45 281.253C1316.43 282.918 1314.15 284.39 1311.71 285.586C1310.24 286.149 1308.99 286.688 1307.83 287.187C1301.73 289.807 1298.13 291.353 1278.97 289.661C1258.98 287.895 1256.87 286.179 1251.74 282.001V282.001L1251.74 282.001C1251.01 281.41 1250.23 280.771 1249.32 280.075C1242.02 274.456 1242.99 269.533 1244.79 263.383L1252.74 264.085C1250.18 272.846 1255.79 277.658 1255.79 277.658C1255.79 277.658 1260.29 283.785 1280.17 285.541C1300.05 287.297 1306.6 282.146 1306.6 282.146C1306.6 282.146 1315.25 276.478 1317.36 269.264L1325.69 270C1326.77 269.915 1327.88 269.902 1328.98 269.963C1331.76 270.117 1334.4 270.732 1336.48 271.718C1338.57 272.704 1340.01 274.008 1340.57 275.437C1341.14 276.865 1340.81 278.342 1339.63 279.648C1338.45 280.954 1336.48 282.019 1334.02 282.686C1331.56 283.352 1328.74 283.585 1325.98 283.348C1323.21 283.112 1320.65 282.419 1318.67 281.373C1318.6 281.334 1318.52 281.294 1318.45 281.253ZM1324.87 273.768C1325.95 273.477 1327.17 273.357 1328.4 273.424C1329.75 273.499 1331.02 273.797 1332.04 274.275C1333.05 274.753 1333.74 275.385 1334.02 276.078C1334.29 276.771 1334.13 277.487 1333.56 278.12C1332.99 278.753 1332.03 279.27 1330.84 279.593C1329.65 279.916 1328.28 280.029 1326.94 279.914C1325.6 279.8 1324.36 279.464 1323.4 278.957C1322.78 278.63 1322.3 278.244 1321.99 277.825C1323.12 276.53 1324.09 275.169 1324.87 273.768ZM1241.73 289.544L1314.31 295.954C1315.67 296.075 1316.58 296.865 1316.33 297.719C1316.08 298.572 1314.77 299.167 1313.41 299.046L1240.83 292.636C1239.47 292.516 1238.56 291.726 1238.81 290.872C1239.06 290.018 1240.37 289.423 1241.73 289.544ZM579.305 104.377C581.04 107.94 580.374 111.7 577.455 114.831C574.536 117.961 569.601 120.205 563.738 121.07C557.875 121.934 551.562 121.348 546.189 119.44C540.816 117.532 536.823 114.459 535.088 110.896C535.088 110.896 549.152 111.972 557.196 107.637C565.24 103.301 579.305 104.377 579.305 104.377ZM591.149 112.42C590.657 114.023 589.855 115.53 588.769 116.861C588.019 117.547 587.414 118.176 586.853 118.758C583.912 121.814 582.177 123.617 566.955 125.861C551.073 128.203 548.477 127.316 542.154 125.156V125.156C541.26 124.85 540.293 124.52 539.203 124.169C530.398 121.338 528.154 117.511 525.775 112.625L532.091 111.694C535.481 118.654 542.539 121.197 542.539 121.197C542.539 121.197 549.569 124.916 565.361 122.588C581.153 120.26 582.905 115.245 582.905 115.245C582.905 115.245 585.899 109.465 583.108 103.733L589.729 102.757C590.479 102.497 591.29 102.286 592.145 102.129C594.301 101.735 596.623 101.71 598.765 102.06C600.908 102.409 602.756 103.114 604.038 104.07C605.319 105.025 605.964 106.18 605.877 107.364C605.79 108.547 604.975 109.696 603.555 110.639C602.134 111.582 600.182 112.269 597.99 112.599C595.798 112.929 593.481 112.883 591.385 112.469C591.306 112.453 591.227 112.437 591.149 112.42ZM591.391 105.701C592.015 105.288 592.852 104.975 593.801 104.801C594.846 104.609 595.972 104.598 597.011 104.767C598.049 104.937 598.946 105.278 599.567 105.742C600.188 106.205 600.501 106.765 600.459 107.339C600.417 107.913 600.022 108.47 599.333 108.927C598.644 109.384 597.698 109.717 596.635 109.877C595.572 110.037 594.449 110.015 593.432 109.814C592.778 109.685 592.191 109.486 591.704 109.233C591.759 108.067 591.658 106.881 591.391 105.701ZM539.288 132.573L596.945 124.073C598.03 123.913 599.178 124.333 599.508 125.011C599.839 125.689 599.226 126.369 598.141 126.529L540.484 135.03C539.399 135.19 538.251 134.77 537.921 134.091C537.59 133.413 538.203 132.733 539.288 132.573ZM-169.208 180.227C-166.05 186.711 -167.261 193.554 -172.574 199.252C-177.887 204.949 -186.867 209.033 -197.538 210.607C-208.21 212.18 -219.698 211.113 -229.476 207.641C-239.255 204.169 -246.522 198.576 -249.679 192.092C-249.679 192.092 -224.083 194.05 -209.444 186.16C-194.804 178.269 -169.208 180.227 -169.208 180.227ZM-147.653 194.865C-148.547 197.781 -150.008 200.524 -151.983 202.948C-153.349 204.196 -154.45 205.339 -155.471 206.4C-160.823 211.961 -163.981 215.243 -191.683 219.327C-220.587 223.588 -225.313 221.974 -236.82 218.042L-236.82 218.042L-236.821 218.042C-238.446 217.487 -240.207 216.885 -242.191 216.248C-258.215 211.095 -262.299 204.13 -266.629 195.238L-255.133 193.543C-248.965 206.21 -236.119 210.838 -236.119 210.838C-236.119 210.838 -223.324 217.607 -194.584 213.37C-165.844 209.133 -162.656 200.007 -162.656 200.007C-162.656 200.007 -157.207 189.487 -162.287 179.055L-150.237 177.279C-148.872 176.806 -147.396 176.421 -145.839 176.136C-141.916 175.418 -137.691 175.374 -133.792 176.01C-129.892 176.646 -126.527 177.929 -124.196 179.667C-121.864 181.406 -120.691 183.509 -120.849 185.662C-121.007 187.816 -122.49 189.906 -125.075 191.623C-127.661 193.339 -131.212 194.59 -135.202 195.19C-139.192 195.79 -143.408 195.707 -147.223 194.953C-147.367 194.925 -147.51 194.896 -147.653 194.865ZM-147.212 182.636C-146.077 181.885 -144.553 181.314 -142.826 180.998C-140.924 180.65 -138.875 180.628 -136.984 180.937C-135.094 181.245 -133.462 181.867 -132.332 182.71C-131.201 183.554 -130.632 184.573 -130.709 185.617C-130.786 186.661 -131.505 187.675 -132.758 188.507C-134.012 189.339 -135.734 189.946 -137.668 190.237C-139.603 190.528 -141.647 190.488 -143.497 190.122C-144.687 189.887 -145.756 189.526 -146.642 189.064C-146.542 186.943 -146.727 184.784 -147.212 182.636ZM-242.036 231.542L-137.105 216.072C-135.129 215.78 -133.04 216.545 -132.439 217.78C-131.838 219.014 -132.952 220.251 -134.928 220.542L-239.859 236.013C-241.834 236.304 -243.923 235.54 -244.524 234.305C-245.126 233.07 -244.011 231.834 -242.036 231.542ZM-399.807 413.95C-401.208 420.618 -406.911 426.736 -415.662 430.958C-424.413 435.179 -435.494 437.159 -446.469 436.461C-457.443 435.763 -467.412 432.444 -474.181 427.236C-480.951 422.027 -483.967 415.355 -482.566 408.686C-482.566 408.686 -460.076 415.69 -441.187 411.318C-422.297 406.946 -399.807 413.95 -399.807 413.95ZM-389.555 431.926C-392.337 434.456 -395.53 436.711 -398.988 438.564C-401.093 439.448 -402.881 440.288 -404.54 441.068C-413.235 445.155 -418.367 447.566 -446.857 445.754C-476.582 443.864 -479.897 441.405 -487.967 435.42C-489.107 434.574 -490.342 433.658 -491.76 432.663C-503.214 424.627 -502.352 417.325 -500.431 408.179L-488.608 408.931C-491.345 421.958 -482.496 428.863 -482.496 428.863C-482.496 428.863 -475.127 437.748 -445.57 439.628C-416.013 441.508 -406.945 433.668 -406.945 433.668C-406.945 433.668 -394.842 424.99 -392.588 414.262L-380.196 415.05C-378.611 414.887 -376.981 414.828 -375.342 414.878C-371.214 415.005 -367.255 415.819 -364.056 417.201C-360.855 418.582 -358.585 420.456 -357.58 422.545C-356.575 424.634 -356.89 426.826 -358.478 428.797C-360.065 430.767 -362.842 432.411 -366.394 433.483C-369.946 434.555 -374.085 434.999 -378.196 434.749C-382.307 434.499 -386.171 433.568 -389.215 432.095C-389.33 432.039 -389.443 431.983 -389.555 431.926ZM-380.966 420.644C-379.408 420.175 -377.61 419.954 -375.793 420.009C-373.791 420.071 -371.872 420.466 -370.32 421.135C-368.768 421.805 -367.667 422.714 -367.18 423.727C-366.693 424.74 -366.846 425.803 -367.615 426.758C-368.385 427.713 -369.731 428.51 -371.454 429.03C-373.176 429.55 -375.183 429.765 -377.176 429.644C-379.17 429.523 -381.043 429.072 -382.519 428.357C-383.468 427.898 -384.221 427.345 -384.736 426.736C-383.224 424.784 -381.951 422.74 -380.966 420.644ZM-501.846 446.916L-393.932 453.78C-391.9 453.909 -390.469 455.043 -390.736 456.313C-391.002 457.582 -392.866 458.507 -394.898 458.378L-502.812 451.514C-504.843 451.385 -506.274 450.251 -506.007 448.981C-505.741 447.711 -503.877 446.787 -501.846 446.916ZM-539.768 48.8363C-541.169 55.5045 -546.872 61.6222 -555.622 65.8437C-564.373 70.0652 -575.455 72.0447 -586.429 71.3466C-597.404 70.6486 -607.372 67.3302 -614.142 62.1216C-620.912 56.9128 -623.928 50.2405 -622.527 43.5724C-622.527 43.5724 -600.037 50.5763 -581.147 46.2044C-562.258 41.8324 -539.768 48.8363 -539.768 48.8363ZM-529.516 66.8119C-532.298 69.3419 -535.491 71.5967 -538.948 73.4502C-541.053 74.334 -542.842 75.1745 -544.501 75.9541C-553.196 80.0406 -558.328 82.4524 -586.818 80.6403C-616.543 78.7497 -619.857 76.2913 -627.927 70.3058C-629.068 69.4602 -630.303 68.5441 -631.72 67.5494C-643.174 59.5134 -642.313 52.2107 -640.391 43.0652L-628.569 43.8172C-631.305 56.8442 -622.456 63.7489 -622.456 63.7489C-622.456 63.7489 -615.088 72.6341 -585.531 74.5141C-555.974 76.3941 -546.905 68.5543 -546.905 68.5543C-546.905 68.5543 -534.802 59.8762 -532.549 49.148L-520.156 49.9363C-518.571 49.7732 -516.941 49.7142 -515.303 49.7644C-511.174 49.8912 -507.216 50.7055 -504.016 52.0865C-500.816 53.4676 -498.545 55.3417 -497.54 57.4307C-496.536 59.5197 -496.85 61.7122 -498.438 63.6826C-500.026 65.6531 -502.802 67.2965 -506.354 68.3688C-509.906 69.4411 -514.045 69.8853 -518.156 69.6353C-522.268 69.3853 -526.132 68.4543 -529.175 66.9808C-529.29 66.9252 -529.404 66.8688 -529.516 66.8119ZM-520.927 55.5301C-519.369 55.0615 -517.571 54.8397 -515.753 54.8955C-513.751 54.9569 -511.832 55.3518 -510.281 56.0214C-508.729 56.691 -507.628 57.5997 -507.141 58.6126C-506.653 59.6255 -506.806 60.6886 -507.576 61.644C-508.346 62.5994 -509.692 63.3963 -511.414 63.9161C-513.137 64.4362 -515.143 64.6515 -517.137 64.5303C-519.13 64.4091 -521.004 63.9577 -522.48 63.2432C-523.429 62.7836 -524.181 62.2309 -524.697 61.6223C-523.184 59.6701 -521.912 57.6256 -520.927 55.5301ZM-641.806 81.802L-533.892 88.6659C-531.86 88.7951 -530.43 89.9291 -530.696 91.1988C-530.963 92.4684 -532.826 93.3929 -534.858 93.2637L-642.772 86.3998C-644.804 86.2705 -646.235 85.1365 -645.968 83.8669C-645.701 82.5972 -643.838 81.6728 -641.806 81.802ZM1172.88 427.264C1171.48 432.076 1166.99 436.414 1160.39 439.322C1153.8 442.231 1145.65 443.471 1137.72 442.772C1129.8 442.072 1122.77 439.49 1118.16 435.592C1113.55 431.694 1111.75 426.801 1113.15 421.988C1113.15 421.988 1129.06 427.465 1143.02 424.626C1156.98 421.787 1172.88 427.264 1172.88 427.264ZM1179.27 440.484C1177.11 442.27 1174.66 443.85 1172.05 445.134C1170.47 445.738 1169.12 446.316 1167.87 446.852L1167.87 446.852C1161.33 449.664 1157.46 451.323 1136.9 449.507C1115.45 447.612 1113.19 445.77 1107.68 441.286V441.286L1107.68 441.286C1106.9 440.653 1106.06 439.966 1105.09 439.22C1097.25 433.189 1098.3 427.907 1100.22 421.306L1108.76 422.06C1106.01 431.462 1112.03 436.626 1112.03 436.626C1112.03 436.626 1116.86 443.201 1138.19 445.085C1159.52 446.97 1166.56 441.442 1166.56 441.442C1166.56 441.442 1175.84 435.36 1178.1 427.617L1187.05 428.407C1188.2 428.317 1189.39 428.302 1190.58 428.368C1193.56 428.532 1196.39 429.193 1198.63 430.251C1200.87 431.309 1202.41 432.709 1203.02 434.242C1203.62 435.775 1203.27 437.36 1202 438.761C1200.73 440.163 1198.62 441.306 1195.99 442.021C1193.35 442.737 1190.32 442.986 1187.35 442.732C1184.38 442.479 1181.63 441.735 1179.51 440.613C1179.43 440.57 1179.35 440.527 1179.27 440.484ZM1186.16 432.451C1187.32 432.139 1188.64 432.01 1189.95 432.082C1191.4 432.162 1192.77 432.482 1193.86 432.995C1194.94 433.508 1195.69 434.187 1195.98 434.93C1196.28 435.673 1196.1 436.442 1195.49 437.121C1194.88 437.801 1193.85 438.355 1192.57 438.702C1191.29 439.049 1189.83 439.17 1188.39 439.047C1186.95 438.924 1185.62 438.563 1184.59 438.019C1183.92 437.669 1183.41 437.255 1183.07 436.804C1184.28 435.415 1185.32 433.954 1186.16 432.451ZM1096.94 449.382L1174.83 456.26C1176.3 456.39 1177.27 457.238 1177 458.154C1176.73 459.07 1175.33 459.708 1173.86 459.579L1095.98 452.7C1094.51 452.57 1093.54 451.723 1093.81 450.806C1094.07 449.89 1095.48 449.252 1096.94 449.382ZM2028.08 241.04C2023.85 245.731 2016.72 249.391 2008.27 251.216C1999.81 253.042 1990.73 252.882 1983.01 250.772C1975.29 248.662 1969.56 244.775 1967.1 239.966C1964.63 235.157 1965.63 229.82 1969.86 225.129C1969.86 225.129 1983 233.544 1998.97 233.084C2014.94 232.624 2028.08 241.04 2028.08 241.04ZM2026.97 255.727C2023.71 257.179 2020.28 258.37 2016.85 259.227C2014.88 259.57 2013.16 259.926 2011.57 260.257C2003.22 261.991 1998.3 263.015 1978.25 257.538C1957.34 251.823 1956.09 249.536 1953.04 243.967V243.967C1952.61 243.181 1952.15 242.328 1951.58 241.392C1947.04 233.826 1951.18 228.59 1956.99 222.156L1965.31 224.429C1957.04 233.594 1960.21 239.95 1960.21 239.95C1960.21 239.95 1961.35 247.545 1982.14 253.228C2002.94 258.91 2013.36 254.475 2013.36 254.475C2013.36 254.475 2026.42 249.866 2033.23 242.319L2041.95 244.702C2043.19 244.813 2044.42 245.007 2045.59 245.282C2048.56 245.976 2051.08 247.15 2052.76 248.629C2054.45 250.109 2055.22 251.815 2054.95 253.495C2054.68 255.175 2053.4 256.738 2051.28 257.954C2049.17 259.169 2046.34 259.971 2043.22 260.242C2040.1 260.512 2036.84 260.235 2033.95 259.453C2031.05 258.671 2028.66 257.425 2027.13 255.901C2027.08 255.843 2027.02 255.785 2026.97 255.727ZM2038.69 248.696C2040.06 248.579 2041.49 248.677 2042.8 248.983C2044.24 249.319 2045.46 249.889 2046.27 250.606C2047.09 251.323 2047.46 252.151 2047.33 252.965C2047.2 253.78 2046.58 254.538 2045.56 255.127C2044.53 255.716 2043.16 256.105 2041.65 256.236C2040.13 256.367 2038.55 256.233 2037.15 255.854C2035.74 255.475 2034.59 254.871 2033.85 254.132C2033.37 253.656 2033.08 253.141 2033 252.619C2035.05 251.406 2036.96 250.091 2038.69 248.696ZM1937.33 250.386L2013.25 271.133C2014.68 271.523 2015.18 272.564 2014.37 273.457C2013.57 274.35 2011.76 274.758 2010.33 274.367L1934.41 253.621C1932.98 253.23 1932.47 252.189 1933.28 251.296C1934.09 250.403 1935.9 249.996 1937.33 250.386ZM1745.05 104.308C1746.74 109.463 1744.99 114.74 1740.18 118.98C1735.37 123.219 1727.91 126.073 1719.42 126.913C1710.94 127.753 1702.13 126.512 1694.94 123.461C1687.75 120.41 1682.76 115.8 1681.08 110.645C1681.08 110.645 1700.75 113.086 1713.07 107.477C1725.38 101.867 1745.05 104.308 1745.05 104.308ZM1760.08 116.463C1759.04 118.698 1757.58 120.779 1755.75 122.592C1754.54 123.514 1753.55 124.364 1752.63 125.152C1747.81 129.283 1744.97 131.722 1722.94 133.904C1699.96 136.18 1696.48 134.755 1688 131.285L1688 131.285C1686.8 130.795 1685.5 130.264 1684.04 129.697C1672.19 125.115 1669.84 119.553 1667.52 112.483L1676.66 111.578C1679.96 121.649 1689.4 125.708 1689.4 125.708C1689.4 125.708 1698.54 131.431 1721.39 129.168C1744.24 126.904 1747.8 119.923 1747.8 119.923C1747.8 119.923 1753.29 111.938 1750.57 103.645L1760.15 102.696C1761.27 102.377 1762.46 102.131 1763.71 101.965C1766.85 101.548 1770.14 101.665 1773.09 102.299C1776.05 102.934 1778.51 104.052 1780.12 105.488C1781.73 106.924 1782.39 108.6 1782.01 110.269C1781.63 111.938 1780.23 113.51 1778.02 114.752C1775.8 115.994 1772.9 116.839 1769.72 117.163C1766.55 117.486 1763.28 117.27 1760.4 116.547C1760.29 116.52 1760.19 116.492 1760.08 116.463ZM1761.87 106.97C1762.84 106.427 1764.1 106.038 1765.48 105.854C1767 105.652 1768.59 105.708 1770.03 106.016C1771.46 106.324 1772.65 106.866 1773.43 107.562C1774.21 108.258 1774.53 109.071 1774.35 109.88C1774.17 110.69 1773.49 111.452 1772.41 112.054C1771.34 112.656 1769.93 113.066 1768.39 113.223C1766.85 113.38 1765.27 113.275 1763.87 112.924C1762.98 112.699 1762.19 112.379 1761.55 111.989C1761.88 110.343 1761.99 108.658 1761.87 106.97ZM1682.34 141.595L1765.77 133.331C1767.34 133.175 1768.87 133.845 1769.19 134.826C1769.51 135.808 1768.5 136.73 1766.93 136.885L1683.51 145.149C1681.94 145.305 1680.4 144.635 1680.08 143.654C1679.76 142.672 1680.77 141.75 1682.34 141.595ZM1849.5 414.789C1849.11 420.022 1845.32 424.965 1838.95 428.529C1832.59 432.093 1824.17 433.987 1815.56 433.795C1806.95 433.602 1798.84 431.338 1793.02 427.501C1787.21 423.664 1784.16 418.569 1784.54 413.335C1784.54 413.335 1802.78 418.067 1817.02 414.062C1831.26 410.057 1849.5 414.789 1849.5 414.789ZM1859.37 428.449C1857.47 430.506 1855.22 432.363 1852.73 433.915C1851.18 434.67 1849.88 435.381 1848.67 436.041C1842.34 439.498 1838.6 441.539 1816.24 441.039C1792.91 440.517 1790.07 438.71 1783.16 434.31C1782.18 433.688 1781.13 433.015 1779.92 432.286C1770.16 426.399 1770.06 420.689 1770.59 413.511L1779.87 413.719C1779.11 423.943 1786.73 429.033 1786.73 429.033C1786.73 429.033 1793.4 435.712 1816.59 436.231C1839.79 436.75 1846.02 430.36 1846.02 430.36C1846.02 430.36 1854.52 423.221 1855.15 414.801L1864.87 415.018C1866.09 414.841 1867.35 414.743 1868.63 414.73C1871.86 414.696 1875.02 415.204 1877.66 416.176C1880.29 417.149 1882.26 418.534 1883.26 420.128C1884.26 421.721 1884.25 423.437 1883.22 425.021C1882.19 426.605 1880.21 427.973 1877.56 428.92C1874.9 429.868 1871.73 430.346 1868.51 430.283C1865.28 430.22 1862.18 429.619 1859.65 428.569C1859.56 428.53 1859.46 428.489 1859.37 428.449ZM1864.86 419.396C1866.03 418.981 1867.4 418.751 1868.82 418.737C1870.39 418.721 1871.92 418.966 1873.2 419.438C1874.48 419.909 1875.43 420.581 1875.91 421.354C1876.4 422.127 1876.39 422.959 1875.9 423.727C1875.4 424.495 1874.43 425.158 1873.15 425.617C1871.86 426.077 1870.32 426.309 1868.76 426.278C1867.2 426.247 1865.69 425.956 1864.47 425.447C1863.68 425.12 1863.04 424.714 1862.57 424.257C1863.54 422.689 1864.32 421.058 1864.86 419.396ZM1773.57 443.698L1858.27 445.594C1859.86 445.629 1861.1 446.466 1861.02 447.462C1860.95 448.459 1859.6 449.238 1858 449.202L1773.31 447.307C1771.71 447.271 1770.48 446.435 1770.55 445.438C1770.63 444.442 1771.98 443.663 1773.57 443.698ZM564.58 405.353C562.071 412.915 554.721 419.671 544.146 424.134C533.572 428.597 520.64 430.402 508.194 429.152C495.749 427.902 484.81 423.699 477.783 417.468C470.757 411.237 468.219 403.488 470.728 395.926C470.728 395.926 495.473 404.857 517.654 400.64C539.834 396.423 564.58 405.353 564.58 405.353ZM573.846 426.317C570.323 429.093 566.368 431.538 562.164 433.513C559.638 434.436 557.48 435.323 555.479 436.146C544.986 440.457 538.793 443.001 506.485 439.756C472.776 436.37 469.323 433.424 460.916 426.252L460.916 426.252C459.729 425.238 458.442 424.141 456.958 422.946C444.964 413.291 446.942 404.982 450.383 394.61L463.791 395.957C458.89 410.73 468.061 418.985 468.061 418.985C468.061 418.985 475.271 429.442 508.79 432.809C542.308 436.175 553.738 427.591 553.738 427.591C553.738 427.591 568.75 418.173 572.786 406.007L586.84 407.419C588.673 407.298 590.544 407.298 592.409 407.422C597.11 407.738 601.522 408.831 604.99 410.541C608.459 412.251 610.798 414.486 611.662 416.915C612.526 419.343 611.868 421.836 609.785 424.022C607.702 426.208 604.306 427.972 600.101 429.051C595.896 430.129 591.106 430.466 586.442 430.011C581.779 429.556 577.49 428.333 574.213 426.524C574.089 426.455 573.967 426.386 573.846 426.317ZM585.197 413.779C587.042 413.308 589.126 413.129 591.196 413.267C593.475 413.42 595.614 413.95 597.296 414.779C598.978 415.608 600.112 416.692 600.531 417.87C600.95 419.047 600.631 420.256 599.621 421.316C598.611 422.376 596.964 423.231 594.926 423.754C592.886 424.277 590.564 424.44 588.303 424.22C586.041 423.999 583.962 423.406 582.373 422.529C581.35 421.964 580.566 421.302 580.06 420.585C582.054 418.417 583.786 416.133 585.197 413.779ZM443.492 438.816L565.87 451.109C568.174 451.34 569.655 452.695 569.177 454.135C568.699 455.574 566.444 456.554 564.14 456.323L441.762 444.03C439.458 443.799 437.977 442.444 438.455 441.004C438.933 439.564 441.188 438.585 443.492 438.816Z" fill="#2F2105"/>
</g>
</svg>
