<svg width="205" height="33" viewBox="0 0 205 33" fill="none" xmlns="http://www.w3.org/2000/svg">
<g clip-path="url(#clip0_313_132)">
<path d="M46 1.5C46 7.46737 44 13.5 41 17.4099C37 21.5 37 24 25.5222 24C14.0444 24 14 22.1151 9.61232 17.4099C5.22463 12.7047 5 7.96737 5 2H9C9 10.5 12.4388 14.5834 12.4388 14.5834C12.4388 14.5834 15.5222 20.0027 25.5222 20.0027C35.5222 20.0027 38 14.5834 38 14.5834C38 14.5834 41.4321 8.5 41.4321 1.5H46Z" fill="#2F2105"/>
<path d="M39 1.59495C39 5.94584 37.525 10.1185 34.8995 13.1951C32.274 16.2716 28.713 18 25 18C21.287 18 17.726 16.2716 15.1005 13.1951C12.475 10.1185 11 5.94584 11 1.59495C11 1.59495 19 5.18358 25 1.59495C31 -1.99369 39 1.59495 39 1.59495Z" fill="#FF912B"/>
<path d="M43.7553 27H7.24468C6.55726 27 6 27.6716 6 28.5C6 29.3284 6.55726 30 7.24468 30H43.7553C44.4427 30 45 29.3284 45 28.5C45 27.6716 44.4427 27 43.7553 27Z" fill="#2F2105"/>
<path d="M46 1.5C46 7.46737 44 13.5 41 17.4099C37 21.5 37 24 25.5222 24C14.0444 24 14 22.1151 9.61232 17.4099C5.22463 12.7047 5 7.96737 5 2H9C9 10.5 12.4388 14.5834 12.4388 14.5834C12.4388 14.5834 15.5222 20.0027 25.5222 20.0027C35.5222 20.0027 38 14.5834 38 14.5834C38 14.5834 41.4321 8.5 41.4321 1.5H46Z" fill="#2F2105"/>
<path d="M41.4596 9.52731C41.8656 10.8568 42.6895 12.02 43.8091 12.8441C44.9286 13.6682 46.2841 14.1094 47.6742 14.102C49.0643 14.0946 50.415 13.6391 51.5258 12.8032C52.6365 11.9673 53.4481 10.7954 53.84 9.46165C54.2319 8.12787 54.1832 6.70327 53.7012 5.39935C53.2192 4.09543 52.3296 2.9817 51.1643 2.22351C49.9991 1.46533 48.6205 1.10311 47.2331 1.19062C45.8457 1.27814 44.5235 1.81073 43.4628 2.70933L45.6146 5.24924C46.1289 4.81353 46.77 4.5553 47.4427 4.51286C48.1154 4.47043 48.7838 4.64606 49.3488 5.01368C49.9138 5.3813 50.3452 5.92131 50.5789 6.55355C50.8126 7.18578 50.8362 7.87652 50.6462 8.52323C50.4561 9.16994 50.0626 9.73814 49.5241 10.1434C48.9855 10.5488 48.3306 10.7696 47.6566 10.7732C46.9825 10.7768 46.3253 10.5629 45.7825 10.1633C45.2396 9.76371 44.8401 9.19973 44.6433 8.55507L41.4596 9.52731Z" fill="#2F2105"/>
<path d="M39 1.59495C39 5.94584 37.525 10.1185 34.8995 13.1951C32.274 16.2716 28.713 18 25 18C21.287 18 17.726 16.2716 15.1005 13.1951C12.475 10.1185 11 5.94584 11 1.59495C11 1.59495 19 5.18358 25 1.59495C31 -1.99369 39 1.59495 39 1.59495Z" fill="#FF912B"/>
<path d="M43.7553 27H7.24468C6.55726 27 6 27.6716 6 28.5C6 29.3284 6.55726 30 7.24468 30H43.7553C44.4427 30 45 29.3284 45 28.5C45 27.6716 44.4427 27 43.7553 27Z" fill="#2F2105"/>
</g>
<g filter="url(#filter0_d_313_132)">
<path d="M71.1094 20.0781C70.8073 20.0781 70.5104 20.0156 70.2188 19.8906C69.9271 19.776 69.6667 19.6094 69.4375 19.3906C69.2083 19.1719 69.026 18.901 68.8906 18.5781C68.7552 18.2656 68.6979 17.9062 68.7188 17.5C68.75 16.7917 68.8906 16.1354 69.1406 15.5312C69.3906 14.9271 69.6823 14.4062 70.0156 13.9688C70.349 13.5312 70.6875 13.1927 71.0312 12.9531C71.375 12.7031 71.6615 12.5781 71.8906 12.5781C72.0365 12.5781 72.1667 12.6302 72.2812 12.7344C72.4062 12.8281 72.5 12.9531 72.5625 13.1094C72.6354 13.2552 72.6771 13.4219 72.6875 13.6094C72.7083 13.7865 72.6875 13.9583 72.625 14.125C72.5208 14.0521 72.3281 14.0781 72.0469 14.2031C71.7656 14.3281 71.474 14.5417 71.1719 14.8438C70.8698 15.1354 70.599 15.5 70.3594 15.9375C70.1198 16.375 69.9844 16.8646 69.9531 17.4062C69.9323 17.7604 69.9479 18.0625 70 18.3125C70.0625 18.5625 70.1458 18.7656 70.25 18.9219C70.3646 19.0781 70.4896 19.1927 70.625 19.2656C70.7708 19.3385 70.9219 19.375 71.0781 19.375C71.4531 19.375 71.7969 19.2344 72.1094 18.9531C72.4219 18.6719 72.7083 18.276 72.9688 17.7656C73.2292 17.2656 73.474 16.6667 73.7031 15.9688C73.9323 15.2604 74.151 14.4792 74.3594 13.625C74.4219 13.3646 74.5 13.0417 74.5938 12.6562C74.6979 12.2708 74.8073 11.8542 74.9219 11.4062C75.0365 10.9479 75.1562 10.4792 75.2812 10C75.4167 9.51042 75.5417 9.04688 75.6562 8.60938C75.7708 8.16146 75.8802 7.75 75.9844 7.375C76.0885 6.98958 76.1719 6.67708 76.2344 6.4375C75.8906 6.4375 75.5469 6.45833 75.2031 6.5C74.9115 6.53125 74.6094 6.57812 74.2969 6.64062C73.9844 6.69271 73.724 6.76562 73.5156 6.85938C73.4948 6.84896 73.4792 6.82292 73.4688 6.78125C73.4583 6.72917 73.4479 6.67708 73.4375 6.625C73.4271 6.5625 73.4167 6.49479 73.4062 6.42188C73.3958 6.33854 73.3958 6.25521 73.4062 6.17188C73.4167 6.09896 73.4271 6.02083 73.4375 5.9375C73.4479 5.84375 73.4688 5.75 73.5 5.65625C73.7708 5.57292 74.0833 5.51042 74.4375 5.46875C74.8021 5.41667 75.1406 5.38021 75.4531 5.35938C75.8177 5.32812 76.1927 5.3125 76.5781 5.3125C76.8594 5.3125 77.151 5.32812 77.4531 5.35938C77.7135 5.38021 78.0052 5.41146 78.3281 5.45312C78.651 5.49479 78.974 5.55729 79.2969 5.64062C79.3698 5.71354 79.4167 5.79688 79.4375 5.89062C79.4479 5.93229 79.4531 5.97917 79.4531 6.03125C79.4531 6.11458 79.4375 6.19271 79.4062 6.26562C79.3854 6.32812 79.349 6.39583 79.2969 6.46875C79.2552 6.53125 79.1979 6.58333 79.125 6.625C79.0104 6.59375 78.8646 6.57292 78.6875 6.5625C78.5208 6.54167 78.3542 6.52083 78.1875 6.5C78 6.47917 77.8021 6.46354 77.5938 6.45312L75.9375 13.8281C75.8958 14.0052 75.8229 14.2865 75.7188 14.6719C75.6146 15.0469 75.4688 15.4688 75.2812 15.9375C75.1042 16.3958 74.8854 16.8698 74.625 17.3594C74.375 17.849 74.0781 18.2917 73.7344 18.6875C73.3906 19.0938 73 19.4271 72.5625 19.6875C72.125 19.9479 71.6406 20.0781 71.1094 20.0781ZM83.75 9.82812C83.7396 9.79688 83.7708 9.71875 83.8438 9.59375C83.9167 9.45833 83.9948 9.29688 84.0781 9.10938C84.1719 8.91146 84.2604 8.69271 84.3438 8.45312C84.4375 8.20312 84.5 7.94792 84.5312 7.6875C84.5729 7.42708 84.5729 7.16667 84.5312 6.90625C84.4896 6.64583 84.3802 6.39583 84.2031 6.15625C84.099 6.03125 83.9427 5.96354 83.7344 5.95312C83.5365 5.93229 83.3073 5.96354 83.0469 6.04688C82.7969 6.11979 82.5312 6.23958 82.25 6.40625C81.9792 6.5625 81.7292 6.75 81.5 6.96875C81.2708 7.17708 81.0729 7.41146 80.9062 7.67188C80.75 7.93229 80.6615 8.19792 80.6406 8.46875C80.6198 8.6875 80.625 8.89062 80.6562 9.07812C80.6979 9.26562 80.75 9.4375 80.8125 9.59375C80.875 9.75 80.9427 9.89583 81.0156 10.0312C81.0885 10.1667 81.1562 10.2865 81.2188 10.3906C81.3021 10.5365 81.4323 10.6979 81.6094 10.875C81.7865 11.0521 81.9792 11.2552 82.1875 11.4844C82.3958 11.7031 82.6042 11.9531 82.8125 12.2344C83.0208 12.5156 83.2031 12.8333 83.3594 13.1875C83.5156 13.5417 83.625 13.9375 83.6875 14.375C83.75 14.8125 83.7448 15.2969 83.6719 15.8281C83.5573 16.599 83.375 17.2396 83.125 17.75C82.875 18.2708 82.599 18.6875 82.2969 19C82.0052 19.3125 81.7083 19.5365 81.4062 19.6719C81.1042 19.8177 80.8542 19.9115 80.6562 19.9531C80.5 19.9844 80.3125 20.0104 80.0938 20.0312C79.8854 20.0625 79.6615 20.0573 79.4219 20.0156C79.1927 19.9844 78.9583 19.9115 78.7188 19.7969C78.4792 19.6927 78.2656 19.526 78.0781 19.2969C77.8594 19.0365 77.6875 18.7552 77.5625 18.4531C77.4479 18.1927 77.3646 17.8906 77.3125 17.5469C77.25 17.2135 77.276 16.8646 77.3906 16.5C77.474 16.4062 77.5625 16.3229 77.6562 16.25C77.75 16.1771 77.8438 16.1146 77.9375 16.0625C78.0417 16 78.151 15.9427 78.2656 15.8906C78.401 15.849 78.5365 15.8125 78.6719 15.7812C78.7865 15.7604 78.9062 15.75 79.0312 15.75C79.1667 15.7396 79.2917 15.7552 79.4062 15.7969C79.25 15.974 79.1406 16.1406 79.0781 16.2969C79.0365 16.3802 79.0052 16.4531 78.9844 16.5156C78.9427 16.7135 78.9271 16.9479 78.9375 17.2188C78.9583 17.5 79.0156 17.7656 79.1094 18.0156C79.2135 18.276 79.3594 18.4948 79.5469 18.6719C79.7344 18.8594 79.9844 18.9583 80.2969 18.9688C81.0573 18.9896 81.7031 18.3958 82.2344 17.1875C82.4115 16.8125 82.5 16.4323 82.5 16.0469C82.5104 15.6615 82.4635 15.2917 82.3594 14.9375C82.2656 14.5833 82.1354 14.2552 81.9688 13.9531C81.8125 13.6406 81.651 13.375 81.4844 13.1562C81.3177 12.9375 81.1146 12.7031 80.875 12.4531C80.6458 12.1927 80.4167 11.9115 80.1875 11.6094C79.9583 11.3073 79.75 10.9792 79.5625 10.625C79.3854 10.2708 79.2656 9.88542 79.2031 9.46875C79.1198 8.88542 79.1719 8.35417 79.3594 7.875C79.5573 7.38542 79.8177 6.95833 80.1406 6.59375C80.474 6.22917 80.8333 5.93229 81.2188 5.70312C81.6146 5.47396 81.9635 5.32812 82.2656 5.26562C83.9427 4.93229 85.0417 5.21354 85.5625 6.10938C85.7812 6.45312 85.901 6.81771 85.9219 7.20312C85.9427 7.58854 85.9167 7.94792 85.8438 8.28125C85.7812 8.60417 85.6979 8.88021 85.5938 9.10938C85.5 9.32812 85.4375 9.44792 85.4062 9.46875C85.3438 9.53125 85.2448 9.59896 85.1094 9.67188C84.974 9.74479 84.7552 9.8125 84.4531 9.875C84.3698 9.89583 84.2865 9.90625 84.2031 9.90625C84.1302 9.90625 84.0521 9.90104 83.9688 9.89062C83.8854 9.88021 83.8125 9.85938 83.75 9.82812ZM84.4844 23.6719C84.4115 23.6406 84.3385 23.5938 84.2656 23.5312C84.2031 23.4792 84.1406 23.4115 84.0781 23.3281C84.0156 23.2552 83.9635 23.1615 83.9219 23.0469C84.2135 21.9323 84.4635 20.9635 84.6719 20.1406C84.8698 19.3177 85.0417 18.6302 85.1875 18.0781C85.3438 17.4323 85.4792 16.8906 85.5938 16.4531C85.6979 16.0365 85.8021 15.6198 85.9062 15.2031C85.9896 14.8385 86.0781 14.4479 86.1719 14.0312C86.276 13.6146 86.3698 13.224 86.4531 12.8594C86.5573 12.4531 86.6198 12.1302 86.6406 11.8906C86.6615 11.6406 86.5833 11.4271 86.4062 11.25C86.5312 11.1458 86.6562 11.0677 86.7812 11.0156C86.9167 10.9531 87.0365 10.9115 87.1406 10.8906C87.2552 10.8594 87.3698 10.849 87.4844 10.8594C87.7656 10.8802 87.9375 10.9688 88 11.125C88.0729 11.2812 88.0833 11.5312 88.0312 11.875C88.0208 11.9271 88.0104 11.974 88 12.0156C88 12.0469 88 12.0833 88 12.125C88.1458 11.9583 88.3073 11.7969 88.4844 11.6406C88.6615 11.4844 88.8385 11.3438 89.0156 11.2188C89.2031 11.0938 89.3906 10.9948 89.5781 10.9219C89.776 10.8385 89.9635 10.7969 90.1406 10.7969C90.3802 10.7969 90.5729 10.8594 90.7188 10.9844C90.875 11.099 90.9948 11.2552 91.0781 11.4531C91.1615 11.651 91.2135 11.875 91.2344 12.125C91.2552 12.3646 91.2604 12.6042 91.25 12.8438C91.2396 13.1042 91.1927 13.3802 91.1094 13.6719C91.0365 13.9635 90.9323 14.2604 90.7969 14.5625C90.6615 14.8646 90.5052 15.1615 90.3281 15.4531C90.151 15.7448 89.9635 16.0156 89.7656 16.2656C89.8073 16.276 89.8333 16.2865 89.8438 16.2969C89.8542 16.2969 89.8594 16.3021 89.8594 16.3125C89.8594 16.3125 89.8646 16.3177 89.875 16.3281C89.8958 16.3281 89.9323 16.3281 89.9844 16.3281C90.224 16.3281 90.4688 16.2656 90.7188 16.1406C90.9688 16.0156 91.2135 15.8594 91.4531 15.6719C91.6927 15.474 91.9219 15.2604 92.1406 15.0312C92.3698 14.8021 92.5729 14.5833 92.75 14.375C92.9375 14.1562 93.0938 13.9635 93.2188 13.7969C93.3438 13.6198 93.4375 13.4948 93.5 13.4219C93.5833 13.3177 93.6615 13.25 93.7344 13.2188C93.8073 13.1771 93.8646 13.1719 93.9062 13.2031C93.9479 13.2344 93.9688 13.2969 93.9688 13.3906C93.9688 13.474 93.9375 13.5833 93.875 13.7188C93.8333 13.8125 93.7448 13.9635 93.6094 14.1719C93.474 14.3802 93.3073 14.6146 93.1094 14.875C92.9115 15.1354 92.6823 15.4062 92.4219 15.6875C92.1719 15.9688 91.9062 16.224 91.625 16.4531C91.3438 16.6823 91.0521 16.8698 90.75 17.0156C90.4583 17.1719 90.1719 17.25 89.8906 17.25C89.7552 17.25 89.6458 17.2448 89.5625 17.2344C89.4792 17.224 89.4062 17.2031 89.3438 17.1719C89.2917 17.151 89.2396 17.125 89.1875 17.0938C89.1354 17.0729 89.0729 17.0469 89 17.0156C88.8125 17.1615 88.6198 17.2708 88.4219 17.3438C88.224 17.4271 88.0312 17.4688 87.8438 17.4688C87.6667 17.4688 87.5104 17.4375 87.375 17.375C87.25 17.3229 87.1458 17.2448 87.0625 17.1406C86.9792 17.0469 86.9115 16.9427 86.8594 16.8281C86.8073 16.7031 86.7656 16.5833 86.7344 16.4688C86.724 16.5104 86.7135 16.5469 86.7031 16.5781C86.7031 16.6094 86.6979 16.651 86.6875 16.7031C86.5625 17.2031 86.4323 17.7812 86.2969 18.4375C86.1823 19 86.0417 19.6823 85.875 20.4844C85.7188 21.2969 85.5521 22.2188 85.375 23.25C85.3125 23.5312 85.2031 23.6927 85.0469 23.7344C84.8802 23.776 84.6927 23.7552 84.4844 23.6719ZM87.3438 13.9844C87.2917 14.1615 87.2344 14.3698 87.1719 14.6094C87.1198 14.8385 87.0573 15.1146 86.9844 15.4375C87.0677 15.375 87.1615 15.3281 87.2656 15.2969C87.3698 15.2656 87.474 15.25 87.5781 15.25C87.6927 15.25 87.8385 15.3125 88.0156 15.4375C88.1927 15.5521 88.4062 15.6771 88.6562 15.8125C88.8125 15.625 88.974 15.4167 89.1406 15.1875C89.3177 14.9479 89.474 14.7031 89.6094 14.4531C89.7552 14.2031 89.875 13.9479 89.9688 13.6875C90.0729 13.4271 90.1302 13.1771 90.1406 12.9375C90.1615 12.625 90.125 12.3802 90.0312 12.2031C89.9375 12.026 89.7812 11.9375 89.5625 11.9375C89.2396 11.9375 88.8854 12.1302 88.5 12.5156C88.125 12.8906 87.7396 13.3802 87.3438 13.9844ZM92.2344 16.9219C92.1615 17.0365 92.0833 17.1094 92 17.1406C91.9062 17.1823 91.8281 17.1875 91.7656 17.1562C91.6927 17.1354 91.6458 17.0833 91.625 17C91.6042 16.9167 91.625 16.8125 91.6875 16.6875C91.7188 16.625 91.7917 16.4844 91.9062 16.2656C92.0104 16.0469 92.1406 15.7865 92.2969 15.4844C92.4427 15.1719 92.6042 14.8385 92.7812 14.4844C92.9583 14.1198 93.125 13.776 93.2812 13.4531C93.4479 13.1302 93.599 12.8438 93.7344 12.5938C93.8698 12.3333 93.9688 12.1458 94.0312 12.0312C93.9167 11.9271 93.8385 11.8542 93.7969 11.8125C93.7552 11.7604 93.724 11.6562 93.7031 11.5C93.6823 11.3646 93.7135 11.1875 93.7969 10.9688C93.8802 10.75 93.9896 10.5417 94.125 10.3438C94.2604 10.1354 94.4115 9.95833 94.5781 9.8125C94.7448 9.66667 94.9062 9.59375 95.0625 9.59375C95.3542 9.59375 95.5573 9.6875 95.6719 9.875C95.7969 10.0625 95.8698 10.2552 95.8906 10.4531C95.9115 10.5885 95.901 10.7604 95.8594 10.9688C95.8177 11.1771 95.7396 11.3646 95.625 11.5312C95.6562 11.5521 95.6979 11.5781 95.75 11.6094C95.8021 11.6302 95.8854 11.6406 96 11.6406C96.1667 11.6406 96.2812 11.6302 96.3438 11.6094C96.4167 11.5885 96.526 11.5781 96.6719 11.5781C96.849 11.5781 96.9948 11.625 97.1094 11.7188C97.224 11.8021 97.3177 11.9115 97.3906 12.0469C97.4635 12.1719 97.5156 12.3125 97.5469 12.4688C97.5885 12.6146 97.6146 12.75 97.625 12.875C97.6562 13.1354 97.5885 13.4062 97.4219 13.6875C97.2552 13.9688 97.0521 14.276 96.8125 14.6094C96.6667 14.8177 96.5208 15.0521 96.375 15.3125C96.2292 15.5729 96.1667 15.8073 96.1875 16.0156C96.2083 16.151 96.2448 16.2604 96.2969 16.3438C96.349 16.4271 96.4948 16.4688 96.7344 16.4688C96.9115 16.4688 97.1042 16.4062 97.3125 16.2812C97.5312 16.1458 97.75 15.9792 97.9688 15.7812C98.1979 15.5729 98.4219 15.349 98.6406 15.1094C98.8594 14.8594 99.0625 14.6198 99.25 14.3906C99.4375 14.151 99.5938 13.9375 99.7188 13.75C99.8542 13.5625 99.9531 13.4271 100.016 13.3438C100.068 13.2604 100.135 13.2031 100.219 13.1719C100.302 13.1406 100.375 13.1406 100.438 13.1719C100.5 13.2031 100.536 13.2656 100.547 13.3594C100.568 13.4531 100.531 13.5781 100.438 13.7344C100.375 13.8385 100.266 14.0052 100.109 14.2344C99.9635 14.4635 99.7812 14.7188 99.5625 15C99.3542 15.2812 99.1198 15.5729 98.8594 15.875C98.599 16.1667 98.3229 16.4375 98.0312 16.6875C97.75 16.9271 97.4635 17.125 97.1719 17.2812C96.8906 17.4375 96.6198 17.5156 96.3594 17.5156C96.0885 17.5156 95.8646 17.4635 95.6875 17.3594C95.5104 17.2552 95.3646 17.1302 95.25 16.9844C95.1458 16.8281 95.0677 16.6615 95.0156 16.4844C94.974 16.2969 94.9583 16.125 94.9688 15.9688C94.9792 15.8438 95.0104 15.7135 95.0625 15.5781C95.125 15.4323 95.1927 15.2865 95.2656 15.1406C95.349 14.9844 95.4323 14.8333 95.5156 14.6875C95.6094 14.5312 95.6927 14.3802 95.7656 14.2344C95.9427 13.9323 96.0833 13.6771 96.1875 13.4688C96.3021 13.25 96.3594 13.0677 96.3594 12.9219C96.3594 12.8281 96.3385 12.7448 96.2969 12.6719C96.2552 12.599 96.1875 12.5625 96.0938 12.5625C96.0312 12.5625 95.9844 12.5677 95.9531 12.5781C95.9323 12.5781 95.9062 12.5781 95.875 12.5781C95.8542 12.5781 95.8177 12.5833 95.7656 12.5938C95.724 12.5938 95.6562 12.5938 95.5625 12.5938C95.4271 12.5938 95.3125 12.5729 95.2188 12.5312C95.125 12.4896 95.0365 12.4583 94.9531 12.4375C94.9115 12.5104 94.8177 12.6667 94.6719 12.9062C94.526 13.1458 94.3542 13.4271 94.1562 13.75C93.9688 14.0729 93.7656 14.4115 93.5469 14.7656C93.3385 15.1198 93.1406 15.4531 92.9531 15.7656C92.7656 16.0677 92.6094 16.3281 92.4844 16.5469C92.349 16.7552 92.2656 16.8802 92.2344 16.9219ZM106.406 13.75C106.094 14.2083 105.74 14.6562 105.344 15.0938C104.948 15.5208 104.526 15.9062 104.078 16.25C103.641 16.5833 103.188 16.8542 102.719 17.0625C102.26 17.2708 101.812 17.375 101.375 17.375C101.146 17.375 100.896 17.3177 100.625 17.2031C100.365 17.099 100.125 16.9323 99.9062 16.7031C99.6875 16.474 99.5104 16.1771 99.375 15.8125C99.25 15.4479 99.2135 15.0052 99.2656 14.4844C99.3073 14.0573 99.4375 13.6094 99.6562 13.1406C99.8854 12.6615 100.161 12.224 100.484 11.8281C100.818 11.4323 101.188 11.1042 101.594 10.8438C102.01 10.5833 102.427 10.4531 102.844 10.4531C103.24 10.4531 103.526 10.5521 103.703 10.75C103.88 10.9479 103.958 11.1927 103.938 11.4844C103.906 11.8073 103.812 12.1042 103.656 12.375C103.51 12.6458 103.333 12.8906 103.125 13.1094C102.917 13.3281 102.693 13.526 102.453 13.7031C102.224 13.8802 102.005 14.0417 101.797 14.1875C101.568 14.3438 101.349 14.4948 101.141 14.6406C100.932 14.776 100.75 14.901 100.594 15.0156C100.604 15.276 100.651 15.4948 100.734 15.6719C100.818 15.849 100.922 15.9948 101.047 16.1094C101.172 16.2135 101.312 16.2917 101.469 16.3438C101.635 16.3854 101.802 16.4062 101.969 16.4062C102.323 16.4062 102.693 16.2969 103.078 16.0781C103.464 15.849 103.839 15.5781 104.203 15.2656C104.578 14.9427 104.922 14.6094 105.234 14.2656C105.557 13.9219 105.823 13.625 106.031 13.375C106.104 13.2917 106.177 13.2448 106.25 13.2344C106.333 13.2135 106.396 13.224 106.438 13.2656C106.49 13.2969 106.516 13.3594 106.516 13.4531C106.516 13.5365 106.479 13.6354 106.406 13.75ZM102.406 11.3438C102.281 11.3438 102.13 11.4062 101.953 11.5312C101.786 11.6562 101.62 11.8385 101.453 12.0781C101.286 12.3073 101.13 12.5938 100.984 12.9375C100.839 13.2708 100.729 13.6562 100.656 14.0938C100.781 14 100.917 13.9062 101.062 13.8125C101.208 13.7083 101.354 13.599 101.5 13.4844C101.948 13.1406 102.26 12.8385 102.438 12.5781C102.615 12.3177 102.714 12.0938 102.734 11.9062C102.755 11.7083 102.734 11.5677 102.672 11.4844C102.609 11.3906 102.521 11.3438 102.406 11.3438ZM107.484 16.4688C107.547 16.5104 107.625 16.5312 107.719 16.5312C107.823 16.5312 107.922 16.5104 108.016 16.4688C108.12 16.4271 108.214 16.3698 108.297 16.2969C108.391 16.224 108.458 16.1302 108.5 16.0156C108.542 15.901 108.542 15.7396 108.5 15.5312C108.458 15.3125 108.391 15.0833 108.297 14.8438C108.214 14.5938 108.12 14.3438 108.016 14.0938C107.911 13.8438 107.823 13.6146 107.75 13.4062C107.688 13.25 107.635 13.1042 107.594 12.9688C107.552 12.8542 107.51 12.7448 107.469 12.6406C107.438 12.526 107.411 12.4479 107.391 12.4062C107.339 12.4896 107.245 12.625 107.109 12.8125C106.984 13 106.844 13.1979 106.688 13.4062C106.542 13.6042 106.401 13.7917 106.266 13.9688C106.13 14.1354 106.036 14.25 105.984 14.3125C105.901 14.4062 105.818 14.4635 105.734 14.4844C105.661 14.4948 105.599 14.4792 105.547 14.4375C105.495 14.3854 105.464 14.3177 105.453 14.2344C105.453 14.1406 105.495 14.0312 105.578 13.9062C105.641 13.8229 105.734 13.6927 105.859 13.5156C105.984 13.3281 106.109 13.1406 106.234 12.9531C106.359 12.7552 106.474 12.5833 106.578 12.4375C106.682 12.2812 106.74 12.1875 106.75 12.1562C106.771 12.0729 106.74 11.9635 106.656 11.8281C106.583 11.6927 106.573 11.5365 106.625 11.3594C106.667 11.2135 106.76 11.0469 106.906 10.8594C107.052 10.6615 107.224 10.4844 107.422 10.3281C107.62 10.1719 107.823 10.0573 108.031 9.98438C108.24 9.90104 108.427 9.90104 108.594 9.98438C108.729 10.0677 108.839 10.1615 108.922 10.2656C109.005 10.3594 109.036 10.4583 109.016 10.5625C108.995 10.6146 108.964 10.6823 108.922 10.7656C108.88 10.849 108.818 10.9531 108.734 11.0781C108.651 11.1927 108.531 11.3438 108.375 11.5312C108.406 11.7708 108.448 11.9896 108.5 12.1875C108.562 12.3854 108.62 12.5573 108.672 12.7031C108.734 12.8802 108.802 13.0417 108.875 13.1875C108.969 13.375 109.068 13.5677 109.172 13.7656C109.276 13.9635 109.37 14.1615 109.453 14.3594C109.536 14.5469 109.604 14.724 109.656 14.8906C109.708 15.0573 109.724 15.1979 109.703 15.3125C109.672 15.4896 109.578 15.7031 109.422 15.9531C109.276 16.2031 109.089 16.4479 108.859 16.6875C108.641 16.9167 108.385 17.1146 108.094 17.2812C107.812 17.4479 107.516 17.5312 107.203 17.5312C106.984 17.5312 106.771 17.4635 106.562 17.3281C106.365 17.1927 106.193 17.0365 106.047 16.8594C105.911 16.6719 105.807 16.4896 105.734 16.3125C105.672 16.1354 105.667 16 105.719 15.9062C105.781 15.7812 105.839 15.6823 105.891 15.6094C105.943 15.5365 106.021 15.4531 106.125 15.3594C106.167 15.3281 106.219 15.2917 106.281 15.25C106.333 15.2188 106.406 15.1875 106.5 15.1562C106.594 15.125 106.703 15.0885 106.828 15.0469C106.932 15.3698 107.026 15.625 107.109 15.8125C107.193 15.9896 107.26 16.1302 107.312 16.2344C107.375 16.349 107.432 16.4271 107.484 16.4688ZM113.109 16.4688C113.172 16.5104 113.25 16.5312 113.344 16.5312C113.448 16.5312 113.547 16.5104 113.641 16.4688C113.745 16.4271 113.839 16.3698 113.922 16.2969C114.016 16.224 114.083 16.1302 114.125 16.0156C114.167 15.901 114.167 15.7396 114.125 15.5312C114.083 15.3125 114.016 15.0833 113.922 14.8438C113.839 14.5938 113.745 14.3438 113.641 14.0938C113.536 13.8438 113.448 13.6146 113.375 13.4062C113.312 13.25 113.26 13.1042 113.219 12.9688C113.177 12.8542 113.135 12.7448 113.094 12.6406C113.062 12.526 113.036 12.4479 113.016 12.4062C112.964 12.4896 112.87 12.625 112.734 12.8125C112.609 13 112.469 13.1979 112.312 13.4062C112.167 13.6042 112.026 13.7917 111.891 13.9688C111.755 14.1354 111.661 14.25 111.609 14.3125C111.526 14.4062 111.443 14.4635 111.359 14.4844C111.286 14.4948 111.224 14.4792 111.172 14.4375C111.12 14.3854 111.089 14.3177 111.078 14.2344C111.078 14.1406 111.12 14.0312 111.203 13.9062C111.266 13.8229 111.359 13.6927 111.484 13.5156C111.609 13.3281 111.734 13.1406 111.859 12.9531C111.984 12.7552 112.099 12.5833 112.203 12.4375C112.307 12.2812 112.365 12.1875 112.375 12.1562C112.396 12.0729 112.365 11.9635 112.281 11.8281C112.208 11.6927 112.198 11.5365 112.25 11.3594C112.292 11.2135 112.385 11.0469 112.531 10.8594C112.677 10.6615 112.849 10.4844 113.047 10.3281C113.245 10.1719 113.448 10.0573 113.656 9.98438C113.865 9.90104 114.052 9.90104 114.219 9.98438C114.354 10.0677 114.464 10.1615 114.547 10.2656C114.63 10.3594 114.661 10.4583 114.641 10.5625C114.62 10.6146 114.589 10.6823 114.547 10.7656C114.505 10.849 114.443 10.9531 114.359 11.0781C114.276 11.1927 114.156 11.3438 114 11.5312C114.031 11.7708 114.073 11.9896 114.125 12.1875C114.188 12.3854 114.245 12.5573 114.297 12.7031C114.359 12.8802 114.427 13.0417 114.5 13.1875C114.594 13.375 114.693 13.5677 114.797 13.7656C114.901 13.9635 114.995 14.1615 115.078 14.3594C115.161 14.5469 115.229 14.724 115.281 14.8906C115.333 15.0573 115.349 15.1979 115.328 15.3125C115.297 15.4896 115.203 15.7031 115.047 15.9531C114.901 16.2031 114.714 16.4479 114.484 16.6875C114.266 16.9167 114.01 17.1146 113.719 17.2812C113.438 17.4479 113.141 17.5312 112.828 17.5312C112.609 17.5312 112.396 17.4635 112.188 17.3281C111.99 17.1927 111.818 17.0365 111.672 16.8594C111.536 16.6719 111.432 16.4896 111.359 16.3125C111.297 16.1354 111.292 16 111.344 15.9062C111.406 15.7812 111.464 15.6823 111.516 15.6094C111.568 15.5365 111.646 15.4531 111.75 15.3594C111.792 15.3281 111.844 15.2917 111.906 15.25C111.958 15.2188 112.031 15.1875 112.125 15.1562C112.219 15.125 112.328 15.0885 112.453 15.0469C112.557 15.3698 112.651 15.625 112.734 15.8125C112.818 15.9896 112.885 16.1302 112.938 16.2344C113 16.349 113.057 16.4271 113.109 16.4688ZM121.156 14.5156C121.052 14.9115 120.911 15.2812 120.734 15.625C120.557 15.9688 120.344 16.2656 120.094 16.5156C119.854 16.7656 119.578 16.9583 119.266 17.0938C118.964 17.2396 118.63 17.3125 118.266 17.3125C117.839 17.3125 117.5 17.2188 117.25 17.0312C117.01 16.8542 116.828 16.6302 116.703 16.3594C116.589 16.0885 116.521 15.7917 116.5 15.4688C116.469 15.1458 116.453 14.8438 116.453 14.5625C116.453 14.3646 116.479 14.1458 116.531 13.9062C116.573 13.6667 116.635 13.4219 116.719 13.1719C116.802 12.9219 116.906 12.6719 117.031 12.4219C117.167 12.1719 117.323 11.9427 117.5 11.7344C117.562 11.5573 117.656 11.401 117.781 11.2656C117.917 11.1302 118.068 11.0208 118.234 10.9375C118.411 10.8438 118.599 10.776 118.797 10.7344C118.995 10.6823 119.188 10.6562 119.375 10.6562C119.406 10.6562 119.432 10.6615 119.453 10.6719C119.484 10.6823 119.516 10.6927 119.547 10.7031C119.682 10.7135 119.849 10.7656 120.047 10.8594C120.255 10.9531 120.453 11.0938 120.641 11.2812C120.839 11.4688 121.005 11.7083 121.141 12C121.276 12.2812 121.344 12.625 121.344 13.0312C121.344 13.1146 121.339 13.2188 121.328 13.3438C121.318 13.4583 121.307 13.5573 121.297 13.6406C121.536 13.5469 121.786 13.4323 122.047 13.2969C122.307 13.1615 122.557 13.0208 122.797 12.875C123.047 12.7188 123.276 12.5625 123.484 12.4062C123.693 12.25 123.859 12.1094 123.984 11.9844C124.089 11.8906 124.177 11.8385 124.25 11.8281C124.323 11.8177 124.375 11.8385 124.406 11.8906C124.438 11.9427 124.443 12.0156 124.422 12.1094C124.401 12.2031 124.344 12.3073 124.25 12.4219C124.198 12.4844 124.062 12.6094 123.844 12.7969C123.635 12.9844 123.385 13.1875 123.094 13.4062C122.802 13.625 122.484 13.8385 122.141 14.0469C121.797 14.2552 121.469 14.4115 121.156 14.5156ZM118.516 12.1406C118.484 12.2344 118.469 12.3333 118.469 12.4375C118.469 12.6042 118.479 12.7812 118.5 12.9688C118.521 13.1458 118.573 13.3073 118.656 13.4531C118.74 13.599 118.87 13.724 119.047 13.8281C119.234 13.9219 119.49 13.9688 119.812 13.9688C119.865 13.9688 119.917 13.9688 119.969 13.9688C120.021 13.9583 120.073 13.9479 120.125 13.9375C120.156 13.8021 120.182 13.6823 120.203 13.5781C120.234 13.4635 120.25 13.3646 120.25 13.2812C120.271 13.0833 120.271 12.8802 120.25 12.6719C120.229 12.4635 120.188 12.276 120.125 12.1094C120.073 11.9323 120 11.7917 119.906 11.6875C119.823 11.5729 119.719 11.5156 119.594 11.5156C119.396 11.5156 119.203 11.5729 119.016 11.6875C118.839 11.7917 118.672 11.9427 118.516 12.1406ZM117.516 14.8906C117.516 15.0781 117.526 15.2656 117.547 15.4531C117.568 15.6302 117.609 15.7917 117.672 15.9375C117.734 16.0729 117.818 16.1875 117.922 16.2812C118.026 16.3646 118.161 16.4062 118.328 16.4062C118.516 16.4062 118.688 16.3646 118.844 16.2812C119 16.1875 119.141 16.0729 119.266 15.9375C119.391 15.7917 119.5 15.6302 119.594 15.4531C119.698 15.2656 119.786 15.0729 119.859 14.875C119.786 14.8854 119.714 14.8958 119.641 14.9062C119.578 14.9062 119.505 14.9062 119.422 14.9062C119.026 14.9062 118.682 14.7917 118.391 14.5625C118.109 14.3229 117.891 14.0208 117.734 13.6562C117.672 13.875 117.62 14.0885 117.578 14.2969C117.536 14.5052 117.516 14.7031 117.516 14.8906ZM130.672 19.9062C130.151 19.9062 129.677 19.7812 129.25 19.5312C128.833 19.2812 128.474 18.9375 128.172 18.5C127.88 18.0625 127.656 17.5521 127.5 16.9688C127.354 16.375 127.292 15.7448 127.312 15.0781C127.333 14.4531 127.411 13.776 127.547 13.0469C127.693 12.3177 127.896 11.5885 128.156 10.8594C128.417 10.1198 128.729 9.41146 129.094 8.73438C129.469 8.04688 129.896 7.44271 130.375 6.92188C130.854 6.40104 131.385 5.98438 131.969 5.67188C132.552 5.34896 133.193 5.1875 133.891 5.1875C134.318 5.1875 134.677 5.27604 134.969 5.45312C135.271 5.61979 135.51 5.84375 135.688 6.125C135.875 6.40625 136.005 6.72396 136.078 7.07812C136.151 7.43229 136.182 7.79167 136.172 8.15625C136.151 8.5 136.099 8.83333 136.016 9.15625C135.943 9.47917 135.833 9.77083 135.688 10.0312C135.552 10.2812 135.38 10.4844 135.172 10.6406C134.974 10.7865 134.745 10.8594 134.484 10.8594C134.359 10.849 134.24 10.8073 134.125 10.7344C134.021 10.6719 133.911 10.5781 133.797 10.4531C133.693 10.3281 133.594 10.1458 133.5 9.90625C133.781 9.79167 134 9.59375 134.156 9.3125C134.323 9.02083 134.448 8.71875 134.531 8.40625C134.625 8.05208 134.688 7.65625 134.719 7.21875C134.74 6.79167 134.651 6.47917 134.453 6.28125C134.255 6.08333 134.031 5.98438 133.781 5.98438C133.292 5.98438 132.776 6.23958 132.234 6.75C131.693 7.26042 131.188 7.95312 130.719 8.82812C130.26 9.69271 129.87 10.7031 129.547 11.8594C129.234 13.0156 129.052 14.2396 129 15.5312C128.979 16.1146 129.016 16.6094 129.109 17.0156C129.214 17.4219 129.354 17.7552 129.531 18.0156C129.719 18.276 129.927 18.4635 130.156 18.5781C130.385 18.6927 130.615 18.75 130.844 18.75C131.208 18.75 131.552 18.6719 131.875 18.5156C132.198 18.3594 132.49 18.1667 132.75 17.9375C133.021 17.7083 133.25 17.4688 133.438 17.2188C133.635 16.9792 133.786 16.7656 133.891 16.5781C133.964 16.4427 134.042 16.3594 134.125 16.3281C134.208 16.2969 134.281 16.3073 134.344 16.3594C134.406 16.401 134.448 16.474 134.469 16.5781C134.49 16.6719 134.469 16.7865 134.406 16.9219C134.229 17.276 134.01 17.6302 133.75 17.9844C133.5 18.3385 133.214 18.6562 132.891 18.9375C132.578 19.2292 132.234 19.4635 131.859 19.6406C131.484 19.8177 131.089 19.9062 130.672 19.9062ZM140.719 14.5156C140.615 14.9115 140.474 15.2812 140.297 15.625C140.12 15.9688 139.906 16.2656 139.656 16.5156C139.417 16.7656 139.141 16.9583 138.828 17.0938C138.526 17.2396 138.193 17.3125 137.828 17.3125C137.401 17.3125 137.062 17.2188 136.812 17.0312C136.573 16.8542 136.391 16.6302 136.266 16.3594C136.151 16.0885 136.083 15.7917 136.062 15.4688C136.031 15.1458 136.016 14.8438 136.016 14.5625C136.016 14.3646 136.042 14.1458 136.094 13.9062C136.135 13.6667 136.198 13.4219 136.281 13.1719C136.365 12.9219 136.469 12.6719 136.594 12.4219C136.729 12.1719 136.885 11.9427 137.062 11.7344C137.125 11.5573 137.219 11.401 137.344 11.2656C137.479 11.1302 137.63 11.0208 137.797 10.9375C137.974 10.8438 138.161 10.776 138.359 10.7344C138.557 10.6823 138.75 10.6562 138.938 10.6562C138.969 10.6562 138.995 10.6615 139.016 10.6719C139.047 10.6823 139.078 10.6927 139.109 10.7031C139.245 10.7135 139.411 10.7656 139.609 10.8594C139.818 10.9531 140.016 11.0938 140.203 11.2812C140.401 11.4688 140.568 11.7083 140.703 12C140.839 12.2812 140.906 12.625 140.906 13.0312C140.906 13.1146 140.901 13.2188 140.891 13.3438C140.88 13.4583 140.87 13.5573 140.859 13.6406C141.099 13.5469 141.349 13.4323 141.609 13.2969C141.87 13.1615 142.12 13.0208 142.359 12.875C142.609 12.7188 142.839 12.5625 143.047 12.4062C143.255 12.25 143.422 12.1094 143.547 11.9844C143.651 11.8906 143.74 11.8385 143.812 11.8281C143.885 11.8177 143.938 11.8385 143.969 11.8906C144 11.9427 144.005 12.0156 143.984 12.1094C143.964 12.2031 143.906 12.3073 143.812 12.4219C143.76 12.4844 143.625 12.6094 143.406 12.7969C143.198 12.9844 142.948 13.1875 142.656 13.4062C142.365 13.625 142.047 13.8385 141.703 14.0469C141.359 14.2552 141.031 14.4115 140.719 14.5156ZM138.078 12.1406C138.047 12.2344 138.031 12.3333 138.031 12.4375C138.031 12.6042 138.042 12.7812 138.062 12.9688C138.083 13.1458 138.135 13.3073 138.219 13.4531C138.302 13.599 138.432 13.724 138.609 13.8281C138.797 13.9219 139.052 13.9688 139.375 13.9688C139.427 13.9688 139.479 13.9688 139.531 13.9688C139.583 13.9583 139.635 13.9479 139.688 13.9375C139.719 13.8021 139.745 13.6823 139.766 13.5781C139.797 13.4635 139.812 13.3646 139.812 13.2812C139.833 13.0833 139.833 12.8802 139.812 12.6719C139.792 12.4635 139.75 12.276 139.688 12.1094C139.635 11.9323 139.562 11.7917 139.469 11.6875C139.385 11.5729 139.281 11.5156 139.156 11.5156C138.958 11.5156 138.766 11.5729 138.578 11.6875C138.401 11.7917 138.234 11.9427 138.078 12.1406ZM137.078 14.8906C137.078 15.0781 137.089 15.2656 137.109 15.4531C137.13 15.6302 137.172 15.7917 137.234 15.9375C137.297 16.0729 137.38 16.1875 137.484 16.2812C137.589 16.3646 137.724 16.4062 137.891 16.4062C138.078 16.4062 138.25 16.3646 138.406 16.2812C138.562 16.1875 138.703 16.0729 138.828 15.9375C138.953 15.7917 139.062 15.6302 139.156 15.4531C139.26 15.2656 139.349 15.0729 139.422 14.875C139.349 14.8854 139.276 14.8958 139.203 14.9062C139.141 14.9062 139.068 14.9062 138.984 14.9062C138.589 14.9062 138.245 14.7917 137.953 14.5625C137.672 14.3229 137.453 14.0208 137.297 13.6562C137.234 13.875 137.182 14.0885 137.141 14.2969C137.099 14.5052 137.078 14.7031 137.078 14.8906ZM142.703 15.375C142.589 15.2604 142.505 15.151 142.453 15.0469C142.411 14.9323 142.38 14.8229 142.359 14.7188C142.339 14.6042 142.339 14.4896 142.359 14.375C142.401 14.2292 142.464 14.0938 142.547 13.9688C142.62 13.8542 142.719 13.7396 142.844 13.625C142.969 13.5 143.135 13.3854 143.344 13.2812C143.479 12.9479 143.599 12.599 143.703 12.2344C143.818 11.8594 143.917 11.5208 144 11.2188C144.094 10.8646 144.177 10.5104 144.25 10.1562C144.51 9.27083 144.646 8.55208 144.656 8C144.667 7.4375 144.656 7.06771 144.625 6.89062C144.615 6.81771 144.604 6.74479 144.594 6.67188C144.573 6.60938 144.552 6.54167 144.531 6.46875C144.521 6.38542 144.505 6.30729 144.484 6.23438C144.599 6.17188 144.698 6.11979 144.781 6.07812C144.875 6.03646 144.953 6.00521 145.016 5.98438C145.089 5.95312 145.156 5.93229 145.219 5.92188C145.458 5.86979 145.682 5.84375 145.891 5.84375C146.109 5.83333 146.229 5.86979 146.25 5.95312C146.26 6.00521 146.271 6.09896 146.281 6.23438C146.302 6.36979 146.312 6.53646 146.312 6.73438C146.312 6.93229 146.297 7.15625 146.266 7.40625C146.234 7.64583 146.177 7.90104 146.094 8.17188C146.021 8.41146 145.922 8.74479 145.797 9.17188C145.682 9.53646 145.531 10.026 145.344 10.6406C145.156 11.2448 144.911 12.0208 144.609 12.9688C144.922 12.8646 145.266 12.7656 145.641 12.6719C146.016 12.5781 146.396 12.5 146.781 12.4375C147.177 12.375 147.568 12.3281 147.953 12.2969C148.349 12.2656 148.714 12.2604 149.047 12.2812C149.109 12.2812 149.151 12.3125 149.172 12.375C149.203 12.4271 149.203 12.4844 149.172 12.5469C149.151 12.6094 149.094 12.6719 149 12.7344C148.917 12.7865 148.792 12.8177 148.625 12.8281C148.417 12.849 148.188 12.875 147.938 12.9062C147.688 12.9271 147.427 12.9635 147.156 13.0156C146.896 13.0573 146.635 13.1146 146.375 13.1875C146.115 13.25 145.87 13.3281 145.641 13.4219C145.464 13.4844 145.286 13.5469 145.109 13.6094C144.964 13.6615 144.807 13.724 144.641 13.7969C144.484 13.8594 144.354 13.9167 144.25 13.9688L143.891 15.1094C144.495 15.5365 144.958 15.974 145.281 16.4219C145.615 16.8698 145.854 17.2812 146 17.6562C146.177 18.0938 146.276 18.5208 146.297 18.9375C146.297 19.3958 146.229 19.8542 146.094 20.3125C145.958 20.7812 145.776 21.224 145.547 21.6406C145.328 22.0677 145.068 22.4635 144.766 22.8281C144.474 23.1927 144.161 23.5052 143.828 23.7656C143.505 24.026 143.172 24.224 142.828 24.3594C142.495 24.4948 142.177 24.5469 141.875 24.5156C141.656 24.4948 141.474 24.4219 141.328 24.2969C141.182 24.1823 141.073 24.0312 141 23.8438C140.927 23.6667 140.885 23.4635 140.875 23.2344C140.865 23.0156 140.885 22.7969 140.938 22.5781C140.979 22.3594 141.068 21.9531 141.203 21.3594C141.318 20.8594 141.495 20.1302 141.734 19.1719C141.974 18.224 142.297 16.9583 142.703 15.375ZM143.625 16.1094C143.479 16.6302 143.349 17.1094 143.234 17.5469C143.13 17.9844 143.042 18.3698 142.969 18.7031C142.875 19.0885 142.802 19.4375 142.75 19.75C142.656 20.1458 142.557 20.5365 142.453 20.9219C142.359 21.3073 142.286 21.651 142.234 21.9531C142.172 22.2656 142.146 22.5156 142.156 22.7031C142.167 22.8906 142.234 22.9844 142.359 22.9844C142.661 23.0052 142.974 22.8854 143.297 22.625C143.63 22.375 143.932 22.0521 144.203 21.6562C144.474 21.2708 144.698 20.849 144.875 20.3906C145.052 19.9427 145.141 19.526 145.141 19.1406C145.141 18.7135 145.073 18.2917 144.938 17.875C144.844 17.6562 144.734 17.4427 144.609 17.2344C144.495 17.0573 144.354 16.8698 144.188 16.6719C144.031 16.4635 143.844 16.276 143.625 16.1094ZM147.906 15.375C147.792 15.2604 147.708 15.151 147.656 15.0469C147.615 14.9323 147.583 14.8229 147.562 14.7188C147.542 14.6042 147.542 14.4896 147.562 14.375C147.604 14.2292 147.667 14.0938 147.75 13.9688C147.823 13.8542 147.922 13.7396 148.047 13.625C148.172 13.5 148.339 13.3854 148.547 13.2812C148.682 12.9479 148.802 12.599 148.906 12.2344C149.021 11.8594 149.12 11.5208 149.203 11.2188C149.297 10.8646 149.38 10.5104 149.453 10.1562C149.714 9.27083 149.849 8.55208 149.859 8C149.87 7.4375 149.859 7.06771 149.828 6.89062C149.818 6.81771 149.807 6.74479 149.797 6.67188C149.776 6.60938 149.755 6.54167 149.734 6.46875C149.724 6.38542 149.708 6.30729 149.688 6.23438C149.802 6.17188 149.901 6.11979 149.984 6.07812C150.078 6.03646 150.156 6.00521 150.219 5.98438C150.292 5.95312 150.359 5.93229 150.422 5.92188C150.661 5.86979 150.885 5.84375 151.094 5.84375C151.312 5.83333 151.432 5.86979 151.453 5.95312C151.464 6.00521 151.474 6.09896 151.484 6.23438C151.505 6.36979 151.516 6.53646 151.516 6.73438C151.516 6.93229 151.5 7.15625 151.469 7.40625C151.438 7.64583 151.38 7.90104 151.297 8.17188C151.224 8.41146 151.125 8.74479 151 9.17188C150.885 9.53646 150.734 10.026 150.547 10.6406C150.359 11.2448 150.115 12.0208 149.812 12.9688C150.125 12.8646 150.469 12.7656 150.844 12.6719C151.219 12.5781 151.599 12.5 151.984 12.4375C152.38 12.375 152.771 12.3281 153.156 12.2969C153.552 12.2656 153.917 12.2604 154.25 12.2812C154.312 12.2812 154.354 12.3125 154.375 12.375C154.406 12.4271 154.406 12.4844 154.375 12.5469C154.354 12.6094 154.297 12.6719 154.203 12.7344C154.12 12.7865 153.995 12.8177 153.828 12.8281C153.62 12.849 153.391 12.875 153.141 12.9062C152.891 12.9271 152.63 12.9635 152.359 13.0156C152.099 13.0573 151.839 13.1146 151.578 13.1875C151.318 13.25 151.073 13.3281 150.844 13.4219C150.667 13.4844 150.49 13.5469 150.312 13.6094C150.167 13.6615 150.01 13.724 149.844 13.7969C149.688 13.8594 149.557 13.9167 149.453 13.9688L149.094 15.1094C149.698 15.5365 150.161 15.974 150.484 16.4219C150.818 16.8698 151.057 17.2812 151.203 17.6562C151.38 18.0938 151.479 18.5208 151.5 18.9375C151.5 19.3958 151.432 19.8542 151.297 20.3125C151.161 20.7812 150.979 21.224 150.75 21.6406C150.531 22.0677 150.271 22.4635 149.969 22.8281C149.677 23.1927 149.365 23.5052 149.031 23.7656C148.708 24.026 148.375 24.224 148.031 24.3594C147.698 24.4948 147.38 24.5469 147.078 24.5156C146.859 24.4948 146.677 24.4219 146.531 24.2969C146.385 24.1823 146.276 24.0312 146.203 23.8438C146.13 23.6667 146.089 23.4635 146.078 23.2344C146.068 23.0156 146.089 22.7969 146.141 22.5781C146.182 22.3594 146.271 21.9531 146.406 21.3594C146.521 20.8594 146.698 20.1302 146.938 19.1719C147.177 18.224 147.5 16.9583 147.906 15.375ZM148.828 16.1094C148.682 16.6302 148.552 17.1094 148.438 17.5469C148.333 17.9844 148.245 18.3698 148.172 18.7031C148.078 19.0885 148.005 19.4375 147.953 19.75C147.859 20.1458 147.76 20.5365 147.656 20.9219C147.562 21.3073 147.49 21.651 147.438 21.9531C147.375 22.2656 147.349 22.5156 147.359 22.7031C147.37 22.8906 147.438 22.9844 147.562 22.9844C147.865 23.0052 148.177 22.8854 148.5 22.625C148.833 22.375 149.135 22.0521 149.406 21.6562C149.677 21.2708 149.901 20.849 150.078 20.3906C150.255 19.9427 150.344 19.526 150.344 19.1406C150.344 18.7135 150.276 18.2917 150.141 17.875C150.047 17.6562 149.938 17.4427 149.812 17.2344C149.698 17.0573 149.557 16.8698 149.391 16.6719C149.234 16.4635 149.047 16.276 148.828 16.1094ZM159.875 13.75C159.562 14.2083 159.208 14.6562 158.812 15.0938C158.417 15.5208 157.995 15.9062 157.547 16.25C157.109 16.5833 156.656 16.8542 156.188 17.0625C155.729 17.2708 155.281 17.375 154.844 17.375C154.615 17.375 154.365 17.3177 154.094 17.2031C153.833 17.099 153.594 16.9323 153.375 16.7031C153.156 16.474 152.979 16.1771 152.844 15.8125C152.719 15.4479 152.682 15.0052 152.734 14.4844C152.776 14.0573 152.906 13.6094 153.125 13.1406C153.354 12.6615 153.63 12.224 153.953 11.8281C154.286 11.4323 154.656 11.1042 155.062 10.8438C155.479 10.5833 155.896 10.4531 156.312 10.4531C156.708 10.4531 156.995 10.5521 157.172 10.75C157.349 10.9479 157.427 11.1927 157.406 11.4844C157.375 11.8073 157.281 12.1042 157.125 12.375C156.979 12.6458 156.802 12.8906 156.594 13.1094C156.385 13.3281 156.161 13.526 155.922 13.7031C155.693 13.8802 155.474 14.0417 155.266 14.1875C155.036 14.3438 154.818 14.4948 154.609 14.6406C154.401 14.776 154.219 14.901 154.062 15.0156C154.073 15.276 154.12 15.4948 154.203 15.6719C154.286 15.849 154.391 15.9948 154.516 16.1094C154.641 16.2135 154.781 16.2917 154.938 16.3438C155.104 16.3854 155.271 16.4062 155.438 16.4062C155.792 16.4062 156.161 16.2969 156.547 16.0781C156.932 15.849 157.307 15.5781 157.672 15.2656C158.047 14.9427 158.391 14.6094 158.703 14.2656C159.026 13.9219 159.292 13.625 159.5 13.375C159.573 13.2917 159.646 13.2448 159.719 13.2344C159.802 13.2135 159.865 13.224 159.906 13.2656C159.958 13.2969 159.984 13.3594 159.984 13.4531C159.984 13.5365 159.948 13.6354 159.875 13.75ZM155.875 11.3438C155.75 11.3438 155.599 11.4062 155.422 11.5312C155.255 11.6562 155.089 11.8385 154.922 12.0781C154.755 12.3073 154.599 12.5938 154.453 12.9375C154.307 13.2708 154.198 13.6562 154.125 14.0938C154.25 14 154.385 13.9062 154.531 13.8125C154.677 13.7083 154.823 13.599 154.969 13.4844C155.417 13.1406 155.729 12.8385 155.906 12.5781C156.083 12.3177 156.182 12.0938 156.203 11.9062C156.224 11.7083 156.203 11.5677 156.141 11.4844C156.078 11.3906 155.99 11.3438 155.875 11.3438ZM163.594 19.9531C163.344 19.9531 163.193 19.9219 163.141 19.8594C163.078 19.8073 163.068 19.6979 163.109 19.5312C163.12 19.4792 163.172 19.2448 163.266 18.8281C163.359 18.4219 163.474 17.9219 163.609 17.3281C163.755 16.7448 163.906 16.1094 164.062 15.4219C164.229 14.7344 164.385 14.0885 164.531 13.4844C164.312 13.5052 164.151 13.4896 164.047 13.4375C163.943 13.375 163.891 13.2969 163.891 13.2031C163.901 13.099 163.958 12.9948 164.062 12.8906C164.177 12.7865 164.339 12.6979 164.547 12.625C164.589 12.6042 164.651 12.5833 164.734 12.5625C164.786 12.3854 164.833 12.2031 164.875 12.0156C164.917 11.8594 164.958 11.6927 165 11.5156C165.042 11.3385 165.083 11.1667 165.125 11L166.219 6.32812C166.281 6.08854 166.375 5.91146 166.5 5.79688C166.635 5.67188 166.88 5.56771 167.234 5.48438C167.526 5.41146 167.729 5.38542 167.844 5.40625C167.958 5.41667 168.01 5.44792 168 5.5C167.969 5.61458 167.891 5.89062 167.766 6.32812C167.641 6.76562 167.49 7.30208 167.312 7.9375C167.146 8.5625 166.964 9.25521 166.766 10.0156C166.568 10.7656 166.375 11.5104 166.188 12.25C166.812 12.1562 167.573 12.0781 168.469 12.0156C168.812 11.974 169.146 11.9479 169.469 11.9375C169.802 11.9271 170.12 11.9271 170.422 11.9375C170.568 11.375 170.708 10.8125 170.844 10.25C170.99 9.6875 171.125 9.16667 171.25 8.6875C171.375 8.20833 171.484 7.78646 171.578 7.42188C171.682 7.04688 171.76 6.77083 171.812 6.59375C171.875 6.39583 171.932 6.23438 171.984 6.10938C172.047 5.98438 172.115 5.88542 172.188 5.8125C172.271 5.73958 172.365 5.6875 172.469 5.65625C172.573 5.625 172.693 5.59896 172.828 5.57812C172.901 5.57812 172.99 5.57292 173.094 5.5625C173.177 5.5625 173.276 5.5625 173.391 5.5625C173.505 5.55208 173.635 5.55729 173.781 5.57812C173.385 6.64062 173.016 7.71875 172.672 8.8125C172.339 9.89583 172.026 10.9531 171.734 11.9844C171.922 12.0052 172.083 12.0208 172.219 12.0312C172.365 12.0417 172.479 12.0573 172.562 12.0781C172.812 12.1198 172.969 12.1875 173.031 12.2812C173.104 12.375 173.083 12.5104 172.969 12.6875L172.781 12.9219C172.719 13.0052 172.641 13.1042 172.547 13.2188C172.453 13.3229 172.333 13.4427 172.188 13.5781C172.104 13.5469 172.016 13.5156 171.922 13.4844C171.839 13.4531 171.755 13.4219 171.672 13.3906C171.568 13.3594 171.469 13.3281 171.375 13.2969C171.302 13.5469 171.234 13.7917 171.172 14.0312C171.109 14.2604 171.052 14.4948 171 14.7344C170.875 15.2448 170.755 15.7708 170.641 16.3125C170.547 16.7812 170.448 17.2969 170.344 17.8594C170.25 18.4323 170.177 18.9948 170.125 19.5469C170.042 19.5885 169.958 19.6146 169.875 19.625C169.792 19.6458 169.719 19.6615 169.656 19.6719C169.583 19.6823 169.51 19.6927 169.438 19.7031H169.422H169.391H169.359C169.318 19.7031 169.276 19.7031 169.234 19.7031C169.193 19.7031 169.151 19.6927 169.109 19.6719C169.057 19.6615 169.005 19.6458 168.953 19.625C168.901 19.6042 168.849 19.5833 168.797 19.5625C168.755 19.5521 168.708 19.5312 168.656 19.5C168.74 19.1562 168.802 18.8333 168.844 18.5312C168.896 18.2292 168.932 17.9635 168.953 17.7344C168.984 17.4635 169.005 17.224 169.016 17.0156C169.026 16.7448 168.995 16.4479 168.922 16.125C168.859 15.8021 168.755 15.4844 168.609 15.1719C168.474 14.8594 168.302 14.5677 168.094 14.2969C167.896 14.026 167.667 13.7969 167.406 13.6094C167.146 13.4323 166.896 13.3177 166.656 13.2656C166.427 13.2135 166.193 13.1979 165.953 13.2188C165.88 13.5312 165.812 13.8333 165.75 14.125C165.688 14.4167 165.635 14.6979 165.594 14.9688C165.479 15.5729 165.37 16.1615 165.266 16.7344C165.182 17.224 165.094 17.7292 165 18.25C164.917 18.7812 164.854 19.2344 164.812 19.6094C164.646 19.6927 164.49 19.7552 164.344 19.7969C164.198 19.849 164.068 19.8854 163.953 19.9062C163.828 19.9375 163.708 19.9531 163.594 19.9531ZM169.781 13.0156C169.417 12.974 169.068 12.9531 168.734 12.9531C168.411 12.9427 168.125 12.9375 167.875 12.9375C168.083 13.0521 168.266 13.2031 168.422 13.3906C168.589 13.5781 168.76 13.7917 168.938 14.0312C169.104 14.25 169.24 14.4896 169.344 14.75C169.448 15.0104 169.536 15.2604 169.609 15.5C169.693 15.0625 169.781 14.6354 169.875 14.2188C169.969 13.8021 170.057 13.4115 170.141 13.0469C170.078 13.0365 170.016 13.0312 169.953 13.0312C169.901 13.0208 169.844 13.0156 169.781 13.0156ZM178.25 14.5156C178.146 14.9115 178.005 15.2812 177.828 15.625C177.651 15.9688 177.438 16.2656 177.188 16.5156C176.948 16.7656 176.672 16.9583 176.359 17.0938C176.057 17.2396 175.724 17.3125 175.359 17.3125C174.932 17.3125 174.594 17.2188 174.344 17.0312C174.104 16.8542 173.922 16.6302 173.797 16.3594C173.682 16.0885 173.615 15.7917 173.594 15.4688C173.562 15.1458 173.547 14.8438 173.547 14.5625C173.547 14.3646 173.573 14.1458 173.625 13.9062C173.667 13.6667 173.729 13.4219 173.812 13.1719C173.896 12.9219 174 12.6719 174.125 12.4219C174.26 12.1719 174.417 11.9427 174.594 11.7344C174.656 11.5573 174.75 11.401 174.875 11.2656C175.01 11.1302 175.161 11.0208 175.328 10.9375C175.505 10.8438 175.693 10.776 175.891 10.7344C176.089 10.6823 176.281 10.6562 176.469 10.6562C176.5 10.6562 176.526 10.6615 176.547 10.6719C176.578 10.6823 176.609 10.6927 176.641 10.7031C176.776 10.7135 176.943 10.7656 177.141 10.8594C177.349 10.9531 177.547 11.0938 177.734 11.2812C177.932 11.4688 178.099 11.7083 178.234 12C178.37 12.2812 178.438 12.625 178.438 13.0312C178.438 13.1146 178.432 13.2188 178.422 13.3438C178.411 13.4583 178.401 13.5573 178.391 13.6406C178.63 13.5469 178.88 13.4323 179.141 13.2969C179.401 13.1615 179.651 13.0208 179.891 12.875C180.141 12.7188 180.37 12.5625 180.578 12.4062C180.786 12.25 180.953 12.1094 181.078 11.9844C181.182 11.8906 181.271 11.8385 181.344 11.8281C181.417 11.8177 181.469 11.8385 181.5 11.8906C181.531 11.9427 181.536 12.0156 181.516 12.1094C181.495 12.2031 181.438 12.3073 181.344 12.4219C181.292 12.4844 181.156 12.6094 180.938 12.7969C180.729 12.9844 180.479 13.1875 180.188 13.4062C179.896 13.625 179.578 13.8385 179.234 14.0469C178.891 14.2552 178.562 14.4115 178.25 14.5156ZM175.609 12.1406C175.578 12.2344 175.562 12.3333 175.562 12.4375C175.562 12.6042 175.573 12.7812 175.594 12.9688C175.615 13.1458 175.667 13.3073 175.75 13.4531C175.833 13.599 175.964 13.724 176.141 13.8281C176.328 13.9219 176.583 13.9688 176.906 13.9688C176.958 13.9688 177.01 13.9688 177.062 13.9688C177.115 13.9583 177.167 13.9479 177.219 13.9375C177.25 13.8021 177.276 13.6823 177.297 13.5781C177.328 13.4635 177.344 13.3646 177.344 13.2812C177.365 13.0833 177.365 12.8802 177.344 12.6719C177.323 12.4635 177.281 12.276 177.219 12.1094C177.167 11.9323 177.094 11.7917 177 11.6875C176.917 11.5729 176.812 11.5156 176.688 11.5156C176.49 11.5156 176.297 11.5729 176.109 11.6875C175.932 11.7917 175.766 11.9427 175.609 12.1406ZM174.609 14.8906C174.609 15.0781 174.62 15.2656 174.641 15.4531C174.661 15.6302 174.703 15.7917 174.766 15.9375C174.828 16.0729 174.911 16.1875 175.016 16.2812C175.12 16.3646 175.255 16.4062 175.422 16.4062C175.609 16.4062 175.781 16.3646 175.938 16.2812C176.094 16.1875 176.234 16.0729 176.359 15.9375C176.484 15.7917 176.594 15.6302 176.688 15.4531C176.792 15.2656 176.88 15.0729 176.953 14.875C176.88 14.8854 176.807 14.8958 176.734 14.9062C176.672 14.9062 176.599 14.9062 176.516 14.9062C176.12 14.9062 175.776 14.7917 175.484 14.5625C175.203 14.3229 174.984 14.0208 174.828 13.6562C174.766 13.875 174.714 14.0885 174.672 14.2969C174.63 14.5052 174.609 14.7031 174.609 14.8906ZM181.859 17.25C181.464 17.25 181.141 17.1875 180.891 17.0625C180.641 16.9375 180.443 16.7865 180.297 16.6094C180.161 16.4219 180.062 16.224 180 16.0156C179.948 15.7969 179.922 15.599 179.922 15.4219C179.922 15.1094 179.948 14.7812 180 14.4375C180.052 14.0833 180.115 13.7604 180.188 13.4688C180.26 13.1667 180.323 12.9115 180.375 12.7031C180.438 12.4948 180.479 12.3646 180.5 12.3125C180.594 12.0104 180.714 11.75 180.859 11.5312C181.016 11.3021 181.229 11.1458 181.5 11.0625C181.604 11.0417 181.714 11.0208 181.828 11C181.922 10.9896 182.016 10.9844 182.109 10.9844C182.214 10.9844 182.307 11 182.391 11.0312C182.109 11.75 181.885 12.349 181.719 12.8281C181.562 13.3073 181.443 13.6979 181.359 14C181.266 14.3438 181.208 14.6198 181.188 14.8281C181.135 15.2969 181.177 15.651 181.312 15.8906C181.448 16.1302 181.724 16.25 182.141 16.25C182.411 16.25 182.672 16.151 182.922 15.9531C183.172 15.7448 183.401 15.4792 183.609 15.1562C183.578 14.9896 183.562 14.8177 183.562 14.6406C183.562 14.3073 183.589 13.9844 183.641 13.6719C183.703 13.349 183.771 13.0521 183.844 12.7812C183.927 12.5 184.01 12.25 184.094 12.0312C184.188 11.8125 184.266 11.6406 184.328 11.5156C184.443 11.2656 184.547 11.1146 184.641 11.0625C184.734 11 184.885 10.9635 185.094 10.9531C185.177 10.9427 185.245 10.9427 185.297 10.9531C185.359 10.9531 185.411 10.9583 185.453 10.9688C185.578 11 185.641 11.0625 185.641 11.1562C185.641 11.3229 185.63 11.5729 185.609 11.9062C185.589 12.2396 185.526 12.5833 185.422 12.9375C185.349 13.2292 185.276 13.4792 185.203 13.6875C185.141 13.8854 185.078 14.0573 185.016 14.2031C184.953 14.3385 184.891 14.4531 184.828 14.5469C184.766 14.6302 184.708 14.7083 184.656 14.7812C184.677 15.0938 184.703 15.3438 184.734 15.5312C184.766 15.7188 184.802 15.8646 184.844 15.9688C184.896 16.0625 184.953 16.1302 185.016 16.1719C185.089 16.2031 185.167 16.2188 185.25 16.2188C185.396 16.2188 185.568 16.151 185.766 16.0156C185.964 15.8698 186.167 15.6927 186.375 15.4844C186.594 15.2656 186.807 15.0312 187.016 14.7812C187.234 14.5208 187.432 14.276 187.609 14.0469C187.786 13.8177 187.938 13.6198 188.062 13.4531C188.188 13.276 188.266 13.1667 188.297 13.125C188.37 13.0312 188.438 12.974 188.5 12.9531C188.573 12.9323 188.63 12.9427 188.672 12.9844C188.714 13.0156 188.734 13.0729 188.734 13.1562C188.745 13.2292 188.724 13.3125 188.672 13.4062C188.464 13.8021 188.203 14.224 187.891 14.6719C187.589 15.1094 187.26 15.5156 186.906 15.8906C186.562 16.2656 186.214 16.5781 185.859 16.8281C185.505 17.0781 185.172 17.2031 184.859 17.2031C184.578 17.2031 184.354 17.1094 184.188 16.9219C184.031 16.724 183.896 16.4427 183.781 16.0781C183.542 16.4531 183.26 16.7448 182.938 16.9531C182.615 17.151 182.255 17.25 181.859 17.25ZM189.625 16.4688C189.688 16.5104 189.766 16.5312 189.859 16.5312C189.964 16.5312 190.062 16.5104 190.156 16.4688C190.26 16.4271 190.354 16.3698 190.438 16.2969C190.531 16.224 190.599 16.1302 190.641 16.0156C190.682 15.901 190.682 15.7396 190.641 15.5312C190.599 15.3125 190.531 15.0833 190.438 14.8438C190.354 14.5938 190.26 14.3438 190.156 14.0938C190.052 13.8438 189.964 13.6146 189.891 13.4062C189.828 13.25 189.776 13.1042 189.734 12.9688C189.693 12.8542 189.651 12.7448 189.609 12.6406C189.578 12.526 189.552 12.4479 189.531 12.4062C189.479 12.4896 189.385 12.625 189.25 12.8125C189.125 13 188.984 13.1979 188.828 13.4062C188.682 13.6042 188.542 13.7917 188.406 13.9688C188.271 14.1354 188.177 14.25 188.125 14.3125C188.042 14.4062 187.958 14.4635 187.875 14.4844C187.802 14.4948 187.74 14.4792 187.688 14.4375C187.635 14.3854 187.604 14.3177 187.594 14.2344C187.594 14.1406 187.635 14.0312 187.719 13.9062C187.781 13.8229 187.875 13.6927 188 13.5156C188.125 13.3281 188.25 13.1406 188.375 12.9531C188.5 12.7552 188.615 12.5833 188.719 12.4375C188.823 12.2812 188.88 12.1875 188.891 12.1562C188.911 12.0729 188.88 11.9635 188.797 11.8281C188.724 11.6927 188.714 11.5365 188.766 11.3594C188.807 11.2135 188.901 11.0469 189.047 10.8594C189.193 10.6615 189.365 10.4844 189.562 10.3281C189.76 10.1719 189.964 10.0573 190.172 9.98438C190.38 9.90104 190.568 9.90104 190.734 9.98438C190.87 10.0677 190.979 10.1615 191.062 10.2656C191.146 10.3594 191.177 10.4583 191.156 10.5625C191.135 10.6146 191.104 10.6823 191.062 10.7656C191.021 10.849 190.958 10.9531 190.875 11.0781C190.792 11.1927 190.672 11.3438 190.516 11.5312C190.547 11.7708 190.589 11.9896 190.641 12.1875C190.703 12.3854 190.76 12.5573 190.812 12.7031C190.875 12.8802 190.943 13.0417 191.016 13.1875C191.109 13.375 191.208 13.5677 191.312 13.7656C191.417 13.9635 191.51 14.1615 191.594 14.3594C191.677 14.5469 191.745 14.724 191.797 14.8906C191.849 15.0573 191.865 15.1979 191.844 15.3125C191.812 15.4896 191.719 15.7031 191.562 15.9531C191.417 16.2031 191.229 16.4479 191 16.6875C190.781 16.9167 190.526 17.1146 190.234 17.2812C189.953 17.4479 189.656 17.5312 189.344 17.5312C189.125 17.5312 188.911 17.4635 188.703 17.3281C188.505 17.1927 188.333 17.0365 188.188 16.8594C188.052 16.6719 187.948 16.4896 187.875 16.3125C187.812 16.1354 187.807 16 187.859 15.9062C187.922 15.7812 187.979 15.6823 188.031 15.6094C188.083 15.5365 188.161 15.4531 188.266 15.3594C188.307 15.3281 188.359 15.2917 188.422 15.25C188.474 15.2188 188.547 15.1875 188.641 15.1562C188.734 15.125 188.844 15.0885 188.969 15.0469C189.073 15.3698 189.167 15.625 189.25 15.8125C189.333 15.9896 189.401 16.1302 189.453 16.2344C189.516 16.349 189.573 16.4271 189.625 16.4688ZM200.125 13.75C199.812 14.2083 199.458 14.6562 199.062 15.0938C198.667 15.5208 198.245 15.9062 197.797 16.25C197.359 16.5833 196.906 16.8542 196.438 17.0625C195.979 17.2708 195.531 17.375 195.094 17.375C194.865 17.375 194.615 17.3177 194.344 17.2031C194.083 17.099 193.844 16.9323 193.625 16.7031C193.406 16.474 193.229 16.1771 193.094 15.8125C192.969 15.4479 192.932 15.0052 192.984 14.4844C193.026 14.0573 193.156 13.6094 193.375 13.1406C193.604 12.6615 193.88 12.224 194.203 11.8281C194.536 11.4323 194.906 11.1042 195.312 10.8438C195.729 10.5833 196.146 10.4531 196.562 10.4531C196.958 10.4531 197.245 10.5521 197.422 10.75C197.599 10.9479 197.677 11.1927 197.656 11.4844C197.625 11.8073 197.531 12.1042 197.375 12.375C197.229 12.6458 197.052 12.8906 196.844 13.1094C196.635 13.3281 196.411 13.526 196.172 13.7031C195.943 13.8802 195.724 14.0417 195.516 14.1875C195.286 14.3438 195.068 14.4948 194.859 14.6406C194.651 14.776 194.469 14.901 194.312 15.0156C194.323 15.276 194.37 15.4948 194.453 15.6719C194.536 15.849 194.641 15.9948 194.766 16.1094C194.891 16.2135 195.031 16.2917 195.188 16.3438C195.354 16.3854 195.521 16.4062 195.688 16.4062C196.042 16.4062 196.411 16.2969 196.797 16.0781C197.182 15.849 197.557 15.5781 197.922 15.2656C198.297 14.9427 198.641 14.6094 198.953 14.2656C199.276 13.9219 199.542 13.625 199.75 13.375C199.823 13.2917 199.896 13.2448 199.969 13.2344C200.052 13.2135 200.115 13.224 200.156 13.2656C200.208 13.2969 200.234 13.3594 200.234 13.4531C200.234 13.5365 200.198 13.6354 200.125 13.75ZM196.125 11.3438C196 11.3438 195.849 11.4062 195.672 11.5312C195.505 11.6562 195.339 11.8385 195.172 12.0781C195.005 12.3073 194.849 12.5938 194.703 12.9375C194.557 13.2708 194.448 13.6562 194.375 14.0938C194.5 14 194.635 13.9062 194.781 13.8125C194.927 13.7083 195.073 13.599 195.219 13.4844C195.667 13.1406 195.979 12.8385 196.156 12.5781C196.333 12.3177 196.432 12.0938 196.453 11.9062C196.474 11.7083 196.453 11.5677 196.391 11.4844C196.328 11.3906 196.24 11.3438 196.125 11.3438Z" fill="black"/>
</g>
<defs>
<filter id="filter0_d_313_132" x="64.6875" y="4.76562" width="139.547" height="27.7969" filterUnits="userSpaceOnUse" color-interpolation-filters="sRGB">
<feFlood flood-opacity="0" result="BackgroundImageFix"/>
<feColorMatrix in="SourceAlpha" type="matrix" values="0 0 0 0 0 0 0 0 0 0 0 0 0 0 0 0 0 0 127 0" result="hardAlpha"/>
<feOffset dy="4"/>
<feGaussianBlur stdDeviation="2"/>
<feComposite in2="hardAlpha" operator="out"/>
<feColorMatrix type="matrix" values="0 0 0 0 0 0 0 0 0 0 0 0 0 0 0 0 0 0 0.25 0"/>
<feBlend mode="normal" in2="BackgroundImageFix" result="effect1_dropShadow_313_132"/>
<feBlend mode="normal" in="SourceGraphic" in2="effect1_dropShadow_313_132" result="shape"/>
</filter>
<clipPath id="clip0_313_132">
<rect width="54" height="30" fill="white"/>
</clipPath>
</defs>
</svg>
